<?xml version="1.0" encoding="iso-8859-1"?>
<!-- Generator: Adobe Illustrator 19.0.0, SVG Export Plug-In . SVG Version: 6.00 Build 0)  -->
<svg version="1.1" id="Capa_1" xmlns="http://www.w3.org/2000/svg" xmlns:xlink="http://www.w3.org/1999/xlink" x="0px" y="0px"
	 viewBox="0 0 512 512" style="enable-background:new 0 0 512 512;" xml:space="preserve">
<circle style="fill:#00EDFF;" cx="256" cy="256" r="256"/>
<path style="fill:#00C9FF;" d="M511.75,267.003L354.014,109.267l-244.7,300.938l96.949,96.949C222.354,510.323,238.98,512,256,512
	C393.697,512,505.984,403.281,511.75,267.003z"/>
<path style="fill:#7C00FF;" d="M256,67.755c-75.384,0-136.495,61.111-136.495,136.495S180.616,340.745,256,340.745
	s136.495-61.111,136.495-136.495S331.384,67.755,256,67.755z M256,223.053c-10.385,0-18.803-8.418-18.803-18.803
	s8.418-18.803,18.803-18.803c10.385,0,18.803,8.418,18.803,18.803S266.385,223.053,256,223.053z"/>
<path style="fill:#6633CC;" d="M256,67.755c-0.149,0-0.296,0.005-0.444,0.006V185.47c0.149-0.003,0.294-0.022,0.444-0.022
	c10.385,0,18.803,8.418,18.803,18.803s-8.418,18.803-18.803,18.803c-0.15,0-0.295-0.019-0.444-0.022v117.709
	c0.148,0,0.296,0.006,0.444,0.006c75.384,0,136.495-61.111,136.495-136.495S331.384,67.755,256,67.755z"/>
<g>
	<path style="fill:#4D20BC;" d="M256,316.25C255.998,316.25,256.002,316.25,256,316.25v-16.714c25.453,0,49.381-9.911,67.378-27.909
		c17.998-17.997,27.909-41.926,27.909-67.378h16.714c0,29.917-11.65,58.042-32.804,79.196
		C314.044,304.599,285.915,316.25,256,316.25z"/>
	<path style="fill:#4D20BC;" d="M160.713,204.25h-16.714c0-29.917,11.65-58.042,32.804-79.196
		c21.153-21.153,49.282-32.804,79.196-32.804c0.002,0-0.001,0,0,0v16.714c-25.452,0-49.381,9.911-67.379,27.909
		C170.624,154.869,160.713,178.798,160.713,204.25z"/>
	<path style="fill:#4D20BC;" d="M256,147.836c-31.157,0-56.414,25.257-56.414,56.414s25.257,56.414,56.414,56.414
		s56.414-25.257,56.414-56.414S287.157,147.836,256,147.836z M256,223.053c-10.385,0-18.803-8.418-18.803-18.803
		s8.418-18.803,18.803-18.803c10.385,0,18.803,8.418,18.803,18.803S266.385,223.053,256,223.053z"/>
</g>
<path style="fill:#3A1B9B;" d="M256,147.836c-0.149,0-0.296,0.01-0.444,0.011v37.622c0.149-0.003,0.294-0.022,0.444-0.022
	c10.385,0,18.803,8.418,18.803,18.803s-8.418,18.803-18.803,18.803c-0.15,0-0.295-0.019-0.444-0.022v37.622
	c0.148,0.001,0.295,0.011,0.444,0.011c31.156,0,56.414-25.257,56.414-56.414S287.156,147.836,256,147.836z"/>
<rect x="109.31" y="204.25" style="fill:#FF432E;" width="293.37" height="205.96"/>
<rect x="255.56" y="204.25" style="fill:#DB0404;" width="147.13" height="205.96"/>
<rect x="164.14" y="347.27" style="fill:#FFE000;" width="183.72" height="28.11"/>
<rect x="255.56" y="347.27" style="fill:#FFC200;" width="92.3" height="28.11"/>
<g>
</g>
<g>
</g>
<g>
</g>
<g>
</g>
<g>
</g>
<g>
</g>
<g>
</g>
<g>
</g>
<g>
</g>
<g>
</g>
<g>
</g>
<g>
</g>
<g>
</g>
<g>
</g>
<g>
</g>
</svg>
