<?xml version="1.0" encoding="iso-8859-1"?>
<!-- Generator: Adobe Illustrator 19.0.0, SVG Export Plug-In . SVG Version: 6.00 Build 0)  -->
<svg version="1.1" id="Capa_1" xmlns="http://www.w3.org/2000/svg" xmlns:xlink="http://www.w3.org/1999/xlink" x="0px" y="0px"
	 viewBox="0 0 512 512" style="enable-background:new 0 0 512 512;" xml:space="preserve">
<circle style="fill:#00EDFF;" cx="256" cy="256" r="256"/>
<path style="fill:#00C9FF;" d="M512,256c0-8.268-0.407-16.44-1.174-24.507l-147.16-147.16L148.333,427.667l83.16,83.16
	C239.56,511.593,247.732,512,256,512C397.385,512,512,397.385,512,256z"/>
<g>
	<rect x="148.33" y="84.33" style="fill:#7C00FF;" width="215.33" height="343.33"/>
	<rect x="148.33" y="84.33" style="fill:#7C00FF;" width="107.22" height="343.33"/>
</g>
<rect x="255.56" y="84.33" style="fill:#6633CC;" width="108.11" height="343.33"/>
<circle style="fill:#4D20BC;" cx="256" cy="322.16" r="83.42"/>
<path style="fill:#3E1FA0;" d="M256,238.749c-0.149,0-0.296,0.01-0.444,0.011v166.808c0.149,0.001,0.295,0.011,0.444,0.011
	c46.069,0,83.415-37.346,83.415-83.415S302.069,238.749,256,238.749z"/>
<circle style="fill:#7C00FF;" cx="256" cy="322.16" r="39.667"/>
<path style="fill:#6633CC;" d="M256,282.497c-0.149,0-0.296,0.01-0.444,0.011v79.311c0.149,0.002,0.295,0.011,0.444,0.011
	c21.907,0,39.667-17.759,39.667-39.667S277.907,282.497,256,282.497z"/>
<circle style="fill:#4D20BC;" cx="256" cy="164" r="55.908"/>
<path style="fill:#3E1FA0;" d="M256,108.092c-0.149,0-0.296,0.01-0.444,0.011v111.793c0.149,0.001,0.295,0.011,0.444,0.011
	c30.877,0,55.908-25.031,55.908-55.908C311.908,133.123,286.877,108.092,256,108.092z"/>
<circle style="fill:#7C00FF;" cx="256" cy="164" r="20.25"/>
<path style="fill:#6633CC;" d="M256,143.75c-0.15,0-0.295,0.019-0.444,0.022v40.455c0.149,0.003,0.294,0.022,0.444,0.022
	c11.184,0,20.25-9.066,20.25-20.25C276.25,152.816,267.184,143.75,256,143.75z"/>
<circle style="fill:#4D20BC;" cx="173.83" cy="108.5" r="13.833"/>
<circle style="fill:#3E1FA0;" cx="339.42" cy="108.5" r="13.833"/>
<circle style="fill:#4D20BC;" cx="173.83" cy="405.58" r="13.833"/>
<circle style="fill:#3E1FA0;" cx="339.42" cy="405.58" r="13.833"/>
<g>
</g>
<g>
</g>
<g>
</g>
<g>
</g>
<g>
</g>
<g>
</g>
<g>
</g>
<g>
</g>
<g>
</g>
<g>
</g>
<g>
</g>
<g>
</g>
<g>
</g>
<g>
</g>
<g>
</g>
</svg>
