<?xml version="1.0" encoding="iso-8859-1"?>
<!-- Generator: Adobe Illustrator 19.0.0, SVG Export Plug-In . SVG Version: 6.00 Build 0)  -->
<svg version="1.1" id="Capa_1" xmlns="http://www.w3.org/2000/svg" xmlns:xlink="http://www.w3.org/1999/xlink" x="0px" y="0px"
	 viewBox="0 0 512 512" style="enable-background:new 0 0 512 512;" xml:space="preserve">
<circle style="fill:#FFE000;" cx="256" cy="256" r="256"/>
<path style="fill:#FFC200;" d="M221.847,452l48.201,48.201L273,511.424c126.712-8.31,228.253-108.795,238.194-235.054
	L327.625,92.801L221.847,452z"/>
<path style="fill:#FF4545;" d="M239,511.424c5.621,0.369,11.286,0.576,17,0.576c5.714,0,11.379-0.207,17-0.576V435h-34V511.424z"/>
<path style="fill:#FC0023;" d="M255.556,435v76.996c0.148,0,0.296,0.004,0.444,0.004c5.714,0,11.379-0.207,17-0.576V435H255.556z"/>
<path style="fill:#6633CC;" d="M256,465L256,465c-25.902,0-47.753-19.28-50.979-44.98L180.667,226h150.667L306.98,420.02
	C303.753,445.72,281.902,465,256,465z"/>
<path style="fill:#5600C6;" d="M255.556,226v238.99c0.149,0.001,0.296,0.01,0.444,0.01l0,0c25.902,0,47.753-19.28,50.979-44.98
	L331.333,226H255.556z"/>
<circle style="fill:#9645FF;" cx="256" cy="164" r="101"/>
<path style="fill:#783CD6;" d="M256,63c-0.149,0-0.296,0.005-0.444,0.006v201.989c0.148,0.001,0.296,0.006,0.444,0.006
	c55.781,0,101-45.219,101-101S311.781,63,256,63z"/>
<path style="fill:#6633CC;" d="M256,63c-45.7,0-84.304,30.355-96.767,72c12.463,41.645,51.067,72,96.767,72s84.304-30.355,96.767-72
	C340.304,93.355,301.7,63,256,63z"/>
<path style="fill:#5600C6;" d="M256,63c-0.149,0-0.296,0.009-0.445,0.009v143.982c0.149,0.001,0.296,0.009,0.445,0.009
	c45.7,0,84.304-30.355,96.767-72C340.304,93.355,301.7,63,256,63z"/>
<rect x="233" y="294.33" style="fill:#7C00FF;" width="46" height="69.33"/>
<rect x="255.56" y="294.33" style="fill:#6A07EA;" width="23.444" height="69.33"/>
<g>
</g>
<g>
</g>
<g>
</g>
<g>
</g>
<g>
</g>
<g>
</g>
<g>
</g>
<g>
</g>
<g>
</g>
<g>
</g>
<g>
</g>
<g>
</g>
<g>
</g>
<g>
</g>
<g>
</g>
</svg>
