<?xml version="1.0" encoding="iso-8859-1"?>
<!-- Generator: Adobe Illustrator 19.0.0, SVG Export Plug-In . SVG Version: 6.00 Build 0)  -->
<svg version="1.1" id="Capa_1" xmlns="http://www.w3.org/2000/svg" xmlns:xlink="http://www.w3.org/1999/xlink" x="0px" y="0px"
	 viewBox="0 0 512 512" style="enable-background:new 0 0 512 512;" xml:space="preserve">
<circle style="fill:#7C00FF;" cx="256" cy="256" r="256"/>
<path style="fill:#6633CC;" d="M512,256c0-23.976-3.305-47.178-9.469-69.185l-90.198-89.603l-312.667,74L246.89,318.436L117,408.333
	L218.153,509.21C230.505,511.04,243.14,512,256,512C397.385,512,512,397.385,512,256z"/>
<rect x="117" y="147" style="fill:#00EDFF;" width="278" height="261.33"/>
<g>
	<rect x="255.56" y="147" style="fill:#00C9FF;" width="139.44" height="261.33"/>
	<rect x="139.5" y="240.67" style="fill:#00C9FF;" width="133.5" height="141"/>
</g>
<rect x="255.56" y="240.67" style="fill:#00A2DB;" width="17.444" height="141"/>
<rect x="99.67" y="97.21" style="fill:#00C9FF;" width="312.67" height="74"/>
<rect x="255.56" y="97.21" style="fill:#00A2DB;" width="156.78" height="74"/>
<circle style="fill:#FFFFFF;" cx="256" cy="147" r="70"/>
<path style="fill:#F0F0F0;" d="M256,77c-0.149,0-0.296,0.01-0.444,0.011v139.978C255.704,216.99,255.851,217,256,217
	c38.66,0,70-31.34,70-70S294.66,77,256,77z"/>
<path style="fill:#FF4545;" d="M230.532,115.19v2.701v9.473v37.798c-1.743-0.449-3.605-0.696-5.542-0.696
	c-9.698,0-17.559,6.089-17.559,13.6s7.861,13.6,17.559,13.6c9.697,0,17.559-6.089,17.559-13.6v-54.185l38.005-11.014v38.321
	c-1.743-0.449-3.605-0.696-5.542-0.696c-9.698,0-17.559,6.089-17.559,13.6s7.861,13.6,17.559,13.6s17.559-6.089,17.559-13.6v-54.708
	v-5.467V97.21L230.532,115.19z"/>
<path style="fill:#FC0023;" d="M255.556,107.938v12.174l24.998-7.244v38.321c-1.743-0.449-3.605-0.696-5.542-0.696
	c-9.698,0-17.559,6.089-17.559,13.6s7.861,13.6,17.559,13.6c9.697,0,17.559-6.089,17.559-13.6v-54.708v-5.467v-6.707
	L255.556,107.938z"/>
<path style="fill:#00A2DB;" d="M373.32,408.333h-80.75V266.375c0-22.298,18.076-40.375,40.375-40.375l0,0
	c22.298,0,40.375,18.076,40.375,40.375V408.333z"/>
<g>
</g>
<g>
</g>
<g>
</g>
<g>
</g>
<g>
</g>
<g>
</g>
<g>
</g>
<g>
</g>
<g>
</g>
<g>
</g>
<g>
</g>
<g>
</g>
<g>
</g>
<g>
</g>
<g>
</g>
</svg>
