<?xml version="1.0" encoding="iso-8859-1"?>
<!-- Generator: Adobe Illustrator 19.0.0, SVG Export Plug-In . SVG Version: 6.00 Build 0)  -->
<svg version="1.1" id="Capa_1" xmlns="http://www.w3.org/2000/svg" xmlns:xlink="http://www.w3.org/1999/xlink" x="0px" y="0px"
	 viewBox="0 0 512 512" style="enable-background:new 0 0 512 512;" xml:space="preserve">
<circle style="fill:#00EDFF;" cx="256" cy="256" r="256"/>
<path style="fill:#00C9FF;" d="M267.09,511.746c132.495-5.65,238.901-111.993,244.648-244.463l-85.737-85.737L410,208.001L262,60
	l-53.725,23.479l1.453,43.864l-24.887,19.631l41.46,41.46L87.982,332.638L267.09,511.746z"/>
<path style="fill:#FFFFFF;" d="M202.278,77.307v48.107c-1.678-0.432-3.47-0.67-5.336-0.67c-9.335,0-16.903,5.862-16.903,13.092
	c0,7.231,7.568,13.092,16.903,13.092s16.903-5.862,16.903-13.092V85.674l36.587-10.602v36.891c-1.678-0.432-3.47-0.67-5.336-0.67
	c-9.335,0-16.903,5.862-16.903,13.092c0,7.23,7.568,13.092,16.903,13.092s16.903-5.862,16.903-13.092V60L202.278,77.307z"/>
<path style="fill:#F0F0F0;" d="M276.473,361.378v48.107c-1.678-0.432-3.47-0.67-5.336-0.67c-9.335,0-16.903,5.862-16.903,13.092
	S261.802,435,271.138,435c9.335,0,16.903-5.862,16.903-13.092v-52.162l36.587-10.602v36.891c-1.678-0.432-3.47-0.67-5.336-0.67
	c-9.335,0-16.903,5.862-16.903,13.092s7.568,13.092,16.903,13.092c9.335,0,16.903-5.862,16.903-13.092v-64.385L276.473,361.378z"/>
<g>
	<path style="fill:#CDF5FF;" d="M232.333,68.597v11.72l18.099-5.245v36.891c-1.678-0.432-3.47-0.669-5.335-0.669
		c-9.335,0-16.903,5.861-16.903,13.092c0,7.23,7.568,13.092,16.903,13.092S262,131.616,262,124.385V60L232.333,68.597z"/>
	<path style="fill:#CDF5FF;" d="M305,353.112v11.719l19.627-5.688v36.891c-1.678-0.432-3.47-0.67-5.335-0.67
		c-9.335,0-16.903,5.862-16.903,13.093c0,7.23,7.568,13.092,16.903,13.092s16.903-5.861,16.903-13.092v-64.385L305,353.112z"/>
</g>
<path style="fill:#7C00FF;" d="M389.46,348.5H122.54c-25.427,0-46.04-20.613-46.04-46.04v-92.92c0-25.427,20.613-46.04,46.04-46.04
	h266.92c25.427,0,46.04,20.613,46.04,46.04v92.919C435.5,327.887,414.887,348.5,389.46,348.5z"/>
<path style="fill:#6633CC;" d="M76.5,256v46.459c0,25.428,20.613,46.041,46.04,46.041h266.92c25.427,0,46.04-20.613,46.04-46.041
	V256H76.5z"/>
<path style="fill:#6205DB;" d="M122.9,348.5L122.9,348.5c-25.626,0-46.4-20.774-46.4-46.4v-92.2c0-25.626,20.774-46.4,46.4-46.4l0,0
	c25.626,0,46.4,20.774,46.4,46.4v92.2C169.301,327.726,148.527,348.5,122.9,348.5z"/>
<path style="fill:#5005C6;" d="M76.5,256.012V302.1c0,25.626,20.774,46.4,46.4,46.4l0,0c25.626,0,46.4-20.774,46.4-46.4v-46.088
	H76.5z"/>
<path style="fill:#B47BFF;" d="M332.299,325.562V270.5l-28.416,20.121l-8.668-12.242L326.82,256l-31.605-22.379l8.668-12.242
	l28.416,20.121v-55.062l60.964,40.895L352.777,256l40.485,28.667L332.299,325.562z M347.299,270.5v26.938l19.536-13.105
	L347.299,270.5z M347.299,214.562V241.5l19.536-13.833L347.299,214.562z"/>
<path style="fill:#9A4DFF;" d="M326.82,256l-31.605,22.379l8.668,12.242l28.416-20.121v55.062l60.964-40.895L352.777,256H326.82z
	 M366.835,284.333l-19.536,13.105V270.5L366.835,284.333z"/>
<g>
</g>
<g>
</g>
<g>
</g>
<g>
</g>
<g>
</g>
<g>
</g>
<g>
</g>
<g>
</g>
<g>
</g>
<g>
</g>
<g>
</g>
<g>
</g>
<g>
</g>
<g>
</g>
<g>
</g>
</svg>
