<?xml version="1.0" encoding="iso-8859-1"?>
<!-- Generator: Adobe Illustrator 19.0.0, SVG Export Plug-In . SVG Version: 6.00 Build 0)  -->
<svg version="1.1" id="Capa_1" xmlns="http://www.w3.org/2000/svg" xmlns:xlink="http://www.w3.org/1999/xlink" x="0px" y="0px"
	 viewBox="0 0 512.001 512.001" style="enable-background:new 0 0 512.001 512.001;" xml:space="preserve">
<circle style="fill:#7C00FF;" cx="256" cy="256" r="256"/>
<path style="fill:#6633CC;" d="M427.132,186.422l-5.141,4.369L354.198,123l-84.329,35.286v64.257l-98.725-98.724l-61.478,22
	l72.186,72.186l-32.708,172.662l29.492,29.492l-7.492,8.119l83.708,83.708c0.383,0.002,0.764,0.015,1.148,0.015
	c136.398,0,247.866-106.677,255.561-241.148L427.132,186.422z"/>
<polygon style="fill:#FFE000;" points="359.634,334.89 160.144,334.89 160.144,186.422 427.132,186.422 "/>
<g>
	<polygon style="fill:#FFC200;" points="427.132,186.422 255.556,186.422 255.556,334.89 359.634,334.89 	"/>
	<path style="fill:#FFC200;" d="M361,368.667H171.145V123.818h-61.478v22h39.478v244.848h16.232
		c-1.861,4.353-2.893,9.141-2.893,14.167c0,19.942,16.225,36.167,36.167,36.167s36.167-16.224,36.167-36.167
		c0-5.025-1.032-9.813-2.893-14.167H361V368.667z M212.817,404.833c0,7.812-6.355,14.167-14.167,14.167s-14.167-6.355-14.167-14.167
		s6.355-14.167,14.167-14.167S212.817,397.022,212.817,404.833z"/>
</g>
<path style="fill:#FFAA00;" d="M361,368.667H255.556v22h21.337c-1.861,4.353-2.893,9.141-2.893,14.167
	C274,424.776,290.225,441,310.167,441s36.166-16.224,36.166-36.167c0-5.025-1.032-9.813-2.893-14.167H361V368.667z M324.333,404.833
	c0,7.812-6.354,14.167-14.166,14.167S296,412.645,296,404.833s6.355-14.167,14.167-14.167S324.333,397.022,324.333,404.833z"/>
<path style="fill:#FF432E;" d="M254.446,151.907v4.344v15.232v60.777c-2.802-0.722-5.796-1.118-8.912-1.118
	c-15.593,0-28.233,9.791-28.233,21.868s12.641,21.868,28.233,21.868c15.593,0,28.233-9.791,28.233-21.868v-87.125l61.11-17.709
	v61.618c-2.802-0.722-5.796-1.118-8.912-1.118c-15.593,0-28.233,9.791-28.233,21.868s12.641,21.868,28.233,21.868
	c15.593,0,28.233-9.791,28.233-21.868v-87.966v-8.791V123L254.446,151.907z"/>
<path style="fill:#DB0404;" d="M299.444,138.867v19.575l35.433-10.268v61.618c-2.802-0.722-5.796-1.118-8.912-1.118
	c-15.593,0-28.233,9.791-28.233,21.868s12.641,21.868,28.233,21.868c15.593,0,28.233-9.791,28.233-21.868v-87.966v-8.791V123
	L299.444,138.867z"/>
<g>
</g>
<g>
</g>
<g>
</g>
<g>
</g>
<g>
</g>
<g>
</g>
<g>
</g>
<g>
</g>
<g>
</g>
<g>
</g>
<g>
</g>
<g>
</g>
<g>
</g>
<g>
</g>
<g>
</g>
</svg>
