<?xml version="1.0" encoding="iso-8859-1"?>
<!-- Generator: Adobe Illustrator 19.0.0, SVG Export Plug-In . SVG Version: 6.00 Build 0)  -->
<svg version="1.1" id="Capa_1" xmlns="http://www.w3.org/2000/svg" xmlns:xlink="http://www.w3.org/1999/xlink" x="0px" y="0px"
	 viewBox="0 0 512 512" style="enable-background:new 0 0 512 512;" xml:space="preserve">
<circle style="fill:#7C00FF;" cx="256" cy="256" r="256"/>
<path style="fill:#6633CC;" d="M319.173,504.137C430.005,476.005,512,375.582,512,256c0-10.149-0.61-20.154-1.758-29.994
	L435,150.764l-71.391,86.915l-69.591-69.59L262,178.624l-10.535-10.535l-31.304,11.25l-11.25-11.25l-36.736,14.188l22.674,22.674
	L63.333,238.236l78.468,78.468l-10.614-0.553L319.173,504.137z"/>
<rect x="63.33" y="210.74" style="fill:#FFA300;" width="32.23" height="27.498"/>
<path style="fill:#FFE000;" d="M293.978,203.309H77.696v43.335h216.283c14.915,0,29.664,3.126,43.297,9.176L435,299.188V150.764
	l-97.725,43.369C323.642,200.183,308.893,203.309,293.978,203.309z"/>
<path style="fill:#FFC200;" d="M337.275,194.133c-13.633,6.05-28.382,9.176-43.297,9.176h-61.1v43.334h61.1
	c14.915,0,29.664,3.125,43.297,9.176L435,299.188V150.764L337.275,194.133z"/>
<path style="fill:#FFBC00;" d="M292.057,334.925H173.699c-31.764,0-57.605-25.842-57.605-57.605v-4.032
	c0-31.764,25.842-57.605,57.605-57.605h118.357c31.764,0,57.605,25.841,57.605,57.605v4.032
	C349.662,309.083,323.82,334.925,292.057,334.925z M173.699,251.683c-11.913,0-21.605,9.692-21.605,21.605v4.032
	c0,11.913,9.692,21.605,21.605,21.605h118.357c11.913,0,21.605-9.692,21.605-21.605v-4.032c0-11.913-9.692-21.605-21.605-21.605
	H173.699z"/>
<path style="fill:#FF9D00;" d="M292.057,215.683h-59.179v36h59.179c11.913,0,21.605,9.692,21.605,21.605v4.032
	c0,11.913-9.692,21.605-21.605,21.605h-59.179v36h59.179c31.764,0,57.605-25.842,57.605-57.605v-4.032
	C349.662,241.524,323.82,215.683,292.057,215.683z"/>
<rect x="182.36" y="177.46" style="fill:#FDBA12;" width="16.361" height="34.33"/>
<rect x="172.18" y="168.09" style="fill:#FFA300;" width="36.736" height="14.187"/>
<rect x="224.92" y="177.46" style="fill:#FDBA12;" width="16.361" height="34.33"/>
<rect x="232.88" y="177.46" style="fill:#FF9D00;" width="8.399" height="34.33"/>
<rect x="214.73" y="168.09" style="fill:#FFA300;" width="36.736" height="14.187"/>
<rect x="232.88" y="168.09" style="fill:#FF8806;" width="18.587" height="14.187"/>
<rect x="267.47" y="177.46" style="fill:#FF9D00;" width="16.361" height="34.33"/>
<rect x="257.28" y="168.09" style="fill:#FF8806;" width="36.736" height="14.187"/>
<rect x="216.67" y="208.9" style="fill:#FFA300;" width="32.856" height="90.03"/>
<g>
	<rect x="233.1" y="208.9" style="fill:#FF8806;" width="16.428" height="90.03"/>
	<rect x="259.22" y="208.9" style="fill:#FF8806;" width="32.856" height="90.03"/>
</g>
<rect x="174.12" y="208.9" style="fill:#FFA300;" width="32.856" height="90.03"/>
<g>
</g>
<g>
</g>
<g>
</g>
<g>
</g>
<g>
</g>
<g>
</g>
<g>
</g>
<g>
</g>
<g>
</g>
<g>
</g>
<g>
</g>
<g>
</g>
<g>
</g>
<g>
</g>
<g>
</g>
</svg>
