<?xml version="1.0" encoding="iso-8859-1"?>
<!-- Generator: Adobe Illustrator 19.0.0, SVG Export Plug-In . SVG Version: 6.00 Build 0)  -->
<svg version="1.1" id="Capa_1" xmlns="http://www.w3.org/2000/svg" xmlns:xlink="http://www.w3.org/1999/xlink" x="0px" y="0px"
	 viewBox="0 0 512 512" style="enable-background:new 0 0 512 512;" xml:space="preserve">
<circle style="fill:#7C00FF;" cx="256" cy="256" r="256"/>
<path style="fill:#6633CC;" d="M512,256c0-4.175-0.108-8.324-0.306-12.45L381.235,113.09l-258.613,17.636l45.43,45.43l-4.592-1.74
	l116.52,116.52L77,368.813l140.273,140.273C229.903,511.003,242.835,512,256,512C397.385,512,512,397.385,512,256z"/>
<rect x="77" y="200.76" style="fill:#FF432E;" width="348.24" height="154.15"/>
<polygon style="fill:#DB0404;" points="425.235,200.764 255.992,200.678 255.992,354.829 425.235,354.915 "/>
<path style="fill:#FFFFFF;" d="M128.955,133h252.28v-19.91h-252.28c-5.498,0-9.955,4.457-9.955,9.955l0,0
	C119,128.543,123.457,133,128.955,133z"/>
<rect x="255.56" y="113.09" style="fill:#F0F0F0;" width="125.68" height="19.91"/>
<path style="fill:#FFFFFF;" d="M169.955,176.837h252.28v-19.91h-252.28c-5.498,0-9.955,4.457-9.955,9.955l0,0
	C160,172.38,164.457,176.837,169.955,176.837z"/>
<rect x="255.56" y="156.93" style="fill:#F0F0F0;" width="166.68" height="19.91"/>
<polygon style="fill:#FF847B;" points="266.485,361.719 245.515,361.719 174.619,252.478 111.823,361.168 90.177,348.661 
	163.177,222.309 184.485,221.758 256,331.953 327.515,221.758 349.007,222.639 417.007,348.991 394.993,360.838 336.995,253.072 "/>
<polygon style="fill:#FF6155;" points="256,361.719 266.485,361.719 336.995,253.072 394.993,360.838 417.007,348.991 
	349.007,222.639 327.515,221.758 256,331.953 "/>
<rect x="77" y="200.76" style="fill:#FFE000;" width="348.24" height="27.799"/>
<rect x="256" y="200.76" style="fill:#FFC200;" width="169.24" height="27.798"/>
<rect x="77" y="341.01" style="fill:#FFE000;" width="348.24" height="27.799"/>
<rect x="256" y="341.01" style="fill:#FFC200;" width="169.24" height="27.798"/>
<g>
</g>
<g>
</g>
<g>
</g>
<g>
</g>
<g>
</g>
<g>
</g>
<g>
</g>
<g>
</g>
<g>
</g>
<g>
</g>
<g>
</g>
<g>
</g>
<g>
</g>
<g>
</g>
<g>
</g>
</svg>
