<?xml version="1.0" encoding="iso-8859-1"?>
<!-- Generator: Adobe Illustrator 19.0.0, SVG Export Plug-In . SVG Version: 6.00 Build 0)  -->
<svg version="1.1" id="Capa_1" xmlns="http://www.w3.org/2000/svg" xmlns:xlink="http://www.w3.org/1999/xlink" x="0px" y="0px"
	 viewBox="0 0 512 512" style="enable-background:new 0 0 512 512;" xml:space="preserve">
<circle style="fill:#00EDFF;" cx="256" cy="256" r="256"/>
<path style="fill:#00C9FF;" d="M302.748,507.728c115.4-21.296,203.666-119.978,208.983-240.229l-81.789-81.79l-11.636,8.37
	l-70.952-70.952L93.377,298.356L302.748,507.728z"/>
<polygon style="fill:#FF432E;" points="294.498,364.094 294.498,269.198 217.502,269.198 217.502,364.094 179.463,364.094 
	256,440.631 332.537,364.094 "/>
<polygon style="fill:#DB0404;" points="256,440.631 332.537,364.094 294.498,364.094 294.498,269.198 255.556,269.198 "/>
<path style="fill:#FFFFFF;" d="M361.45,320.528c46.837,0,84.807-37.969,84.807-84.807s-37.969-84.807-84.807-84.807
	c-0.07,0-0.138,0.005-0.208,0.005C348.393,110.381,310.469,81,265.678,81c-45.575,0-84.039,30.419-96.214,72.058
	c-6.085-1.387-12.409-2.143-18.914-2.143c-46.837,0-84.807,37.969-84.807,84.807s37.969,84.807,84.807,84.807L361.45,320.528
	L361.45,320.528z"/>
<path style="fill:#F0F0F0;" d="M361.45,150.915c-0.07,0-0.138,0.005-0.208,0.005C348.393,110.381,310.469,81,265.678,81
	c-3.419,0-6.792,0.191-10.122,0.526v239.002H361.45c46.837,0,84.807-37.969,84.807-84.807S408.288,150.915,361.45,150.915z"/>
<path style="fill:#7C00FF;" d="M223.572,182.052v67.837c-2.366-0.609-4.894-0.944-7.524-0.944c-13.164,0-23.836,8.266-23.836,18.462
	s10.672,18.462,23.836,18.462s23.836-8.266,23.836-18.462v-73.556l51.592-14.951v52.021c-2.366-0.609-4.894-0.944-7.524-0.944
	c-13.164,0-23.836,8.266-23.836,18.462s10.672,18.462,23.836,18.462s23.836-8.266,23.836-18.462v-90.792L223.572,182.052z"/>
<path style="fill:#6805E8;" d="M283.952,229.977c-13.164,0-23.836,8.266-23.836,18.462s10.672,18.462,23.836,18.462
	s23.836-8.266,23.836-18.462v-90.792l-52.233,15.137v16.526l35.921-10.41v52.021C289.11,230.312,286.582,229.977,283.952,229.977z"
	/>
<g>
</g>
<g>
</g>
<g>
</g>
<g>
</g>
<g>
</g>
<g>
</g>
<g>
</g>
<g>
</g>
<g>
</g>
<g>
</g>
<g>
</g>
<g>
</g>
<g>
</g>
<g>
</g>
<g>
</g>
</svg>
