<?xml version="1.0" encoding="iso-8859-1"?>
<!-- Generator: Adobe Illustrator 19.0.0, SVG Export Plug-In . SVG Version: 6.00 Build 0)  -->
<svg version="1.1" id="Capa_1" xmlns="http://www.w3.org/2000/svg" xmlns:xlink="http://www.w3.org/1999/xlink" x="0px" y="0px"
	 viewBox="0 0 512 512" style="enable-background:new 0 0 512 512;" xml:space="preserve">
<circle style="fill:#FFE000;" cx="256" cy="256" r="256"/>
<path style="fill:#FFC200;" d="M511.51,271.647L329.368,89.505l-93.701-21.839l-67.333,49.111L135.75,408.5l102.902,102.902
	C244.387,511.786,250.168,512,256,512C392.129,512,503.422,405.743,511.51,271.647z"/>
<path style="fill:#FFFFFF;" d="M256,275.5c-59.276,0-107.5-48.224-107.5-107.5S196.724,60.5,256,60.5S363.5,108.724,363.5,168
	S315.276,275.5,256,275.5z M256,77.5c-49.902,0-90.5,40.598-90.5,90.5s40.598,90.5,90.5,90.5s90.5-40.598,90.5-90.5
	S305.902,77.5,256,77.5z"/>
<path style="fill:#F0F0F0;" d="M256,60.5c-0.149,0-0.296,0.005-0.444,0.006v17c0.148-0.001,0.296-0.006,0.444-0.006
	c49.902,0,90.5,40.598,90.5,90.5s-40.598,90.5-90.5,90.5c-0.149,0-0.296-0.005-0.444-0.006v17c0.148,0.001,0.296,0.006,0.444,0.006
	c59.276,0,107.5-48.224,107.5-107.5S315.276,60.5,256,60.5z"/>
<path style="fill:#FFFFFF;" d="M256,246.495c-43.282,0-78.495-35.212-78.495-78.495S212.718,89.505,256,89.505
	s78.495,35.212,78.495,78.495S299.282,246.495,256,246.495z M256,106.505c-33.908,0-61.495,27.586-61.495,61.495
	s27.586,61.495,61.495,61.495s61.495-27.586,61.495-61.495S289.908,106.505,256,106.505z"/>
<path style="fill:#F0F0F0;" d="M256,89.505c-0.149,0-0.296,0.01-0.444,0.011v17c0.149-0.001,0.295-0.011,0.444-0.011
	c33.908,0,61.495,27.586,61.495,61.495S289.908,229.495,256,229.495c-0.149,0-0.296-0.01-0.444-0.011v17
	c0.149,0.001,0.295,0.011,0.444,0.011c43.282,0,78.495-35.212,78.495-78.495S299.282,89.505,256,89.505z"/>
<path style="fill:#FFFFFF;" d="M256,217c-27.019,0-49-21.981-49-49s21.981-49,49-49s49,21.981,49,49S283.019,217,256,217z M256,136
	c-17.645,0-32,14.355-32,32s14.355,32,32,32s32-14.355,32-32S273.645,136,256,136z"/>
<path style="fill:#F0F0F0;" d="M256,119c-0.149,0-0.296,0.01-0.444,0.011v17c0.149-0.002,0.295-0.011,0.444-0.011
	c17.645,0,32,14.355,32,32s-14.355,32-32,32c-0.149,0-0.296-0.009-0.444-0.011v17C255.704,216.99,255.851,217,256,217
	c27.019,0,49-21.981,49-49S283.019,119,256,119z"/>
<rect x="135.75" y="168" style="fill:#FF432E;" width="240.5" height="240.5"/>
<rect x="255.56" y="168" style="fill:#DB0404;" width="120.69" height="240.5"/>
<path style="fill:#7C00FF;" d="M320.676,240.246l35.311-26.333l-31.122-31.122l-26.334,35.311l1.347,1.347l-39.293,39.293
	l-0.57-0.57c-9.713-9.713-25.502-9.912-35.285-0.27c-0.068,0.067-0.136,0.134-0.203,0.202c-1.619,1.619-3.063,3.345-4.335,5.156
	c-4.237,6.036-10.827,10.062-18.172,10.726c-12.697,1.149-25.079,6.582-34.799,16.301c-0.104,0.104-0.208,0.209-0.311,0.313
	c-14.689,14.917-14.479,38.938,0.325,53.741l25.772,25.772c14.803,14.803,38.824,15.014,53.741,0.325
	c0.105-0.103,0.209-0.207,0.314-0.311c9.72-9.72,15.153-22.102,16.301-34.799c0.664-7.345,4.69-13.935,10.726-18.171
	c1.811-1.271,3.538-2.716,5.156-4.335c0.068-0.067,0.135-0.135,0.202-0.203c9.357-9.493,9.445-24.641,0.568-34.405l39.315-39.315
	L320.676,240.246z"/>
<path style="fill:#6633CC;" d="M324.866,182.791l-26.334,35.311l1.347,1.347l-39.293,39.293l-0.57-0.57
	c-1.375-1.375-2.876-2.553-4.46-3.546v104.62c4.443-7.396,7.054-15.586,7.808-23.917c0.664-7.345,4.69-13.935,10.726-18.171
	c1.811-1.271,3.538-2.716,5.156-4.335c0.068-0.067,0.135-0.135,0.202-0.203c9.357-9.493,9.445-24.641,0.568-34.405l39.315-39.315
	l1.347,1.347l35.311-26.333L324.866,182.791z"/>
<g>
</g>
<g>
</g>
<g>
</g>
<g>
</g>
<g>
</g>
<g>
</g>
<g>
</g>
<g>
</g>
<g>
</g>
<g>
</g>
<g>
</g>
<g>
</g>
<g>
</g>
<g>
</g>
<g>
</g>
</svg>
