<?xml version="1.0" encoding="iso-8859-1"?>
<!-- Generator: Adobe Illustrator 19.0.0, SVG Export Plug-In . SVG Version: 6.00 Build 0)  -->
<svg version="1.1" id="Capa_1" xmlns="http://www.w3.org/2000/svg" xmlns:xlink="http://www.w3.org/1999/xlink" x="0px" y="0px"
	 viewBox="0 0 512 512" style="enable-background:new 0 0 512 512;" xml:space="preserve">
<circle style="fill:#FFE000;" cx="256" cy="256" r="256"/>
<path style="fill:#FFC200;" d="M332.912,117.678L116.265,325.086l183.219,183.219c108.372-18.546,193.485-105.2,209.71-214.346
	L332.912,117.678z"/>
<path style="fill:#7C00FF;" d="M465.939,402.508L339.744,276.314l-60.12,60.12l126.748,126.748
	C429.436,446.413,449.59,425.892,465.939,402.508z"/>
<path style="fill:#6633CC;" d="M465.939,402.508L339.744,276.314l-30.382,30.382l128.97,128.97
	C448.429,425.421,457.672,414.332,465.939,402.508z"/>
<circle style="fill:#FFFFFF;" cx="222.33" cy="219.02" r="129"/>
<path style="fill:#F0F0F0;" d="M313.547,310.237c50.378-50.377,50.378-132.056,0-182.434s-132.056-50.377-182.434,0
	c-0.108,0.108-0.211,0.218-0.318,0.326L313.22,310.554C313.329,310.447,313.44,310.344,313.547,310.237z"/>
<path style="fill:#FF432E;" d="M222.331,369.02c-40.067,0-77.735-15.603-106.066-43.934s-43.934-66-43.934-106.066
	s15.603-77.735,43.934-106.066S182.264,69.02,222.331,69.02c40.066,0,77.734,15.603,106.066,43.934l0,0
	c58.484,58.485,58.484,153.647,0,212.132C300.065,353.417,262.397,369.02,222.331,369.02z M222.331,111.02
	c-28.849,0-55.97,11.234-76.367,31.632c-20.399,20.398-31.633,47.52-31.633,76.368s11.233,55.969,31.633,76.368
	c20.397,20.398,47.519,31.632,76.367,31.632s55.969-11.234,76.367-31.632c42.109-42.109,42.109-110.626,0-152.735
	C278.3,122.254,251.179,111.02,222.331,111.02z"/>
<path style="fill:#DB0404;" d="M145.964,142.652c20.397-20.398,47.519-31.632,76.367-31.632s55.969,11.234,76.367,31.632
	c42.109,42.109,42.109,110.626,0,152.735c-0.107,0.107-0.218,0.211-0.326,0.318l29.699,29.699c0.108-0.107,0.219-0.211,0.326-0.318
	c58.484-58.485,58.484-153.647,0-212.132c-28.332-28.332-66-43.934-106.066-43.934c-40.067,0-77.735,15.603-106.066,43.934
	c-0.107,0.107-0.211,0.218-0.318,0.326l29.699,29.699C145.752,142.871,145.856,142.76,145.964,142.652z"/>
<path style="fill:#7C00FF;" d="M189.447,175.142v67.104c-2.34-0.603-4.841-0.934-7.443-0.934c-13.022,0-23.579,8.176-23.579,18.263
	c0,10.086,10.557,18.263,23.579,18.263c13.022,0,23.579-8.176,23.579-18.263v-72.761l51.035-14.789v51.459
	c-2.34-0.603-4.841-0.934-7.443-0.934c-13.022,0-23.579,8.176-23.579,18.263s10.557,18.263,23.579,18.263
	c13.022,0,23.579-8.176,23.579-18.263V151L189.447,175.142z"/>
<path style="fill:#6633CC;" d="M223.889,165.161v16.348l32.729-9.484v51.459c-2.34-0.603-4.841-0.934-7.442-0.934
	c-13.022,0-23.579,8.176-23.579,18.262s10.557,18.263,23.579,18.263s23.579-8.176,23.579-18.263V151L223.889,165.161z"/>
<g>
</g>
<g>
</g>
<g>
</g>
<g>
</g>
<g>
</g>
<g>
</g>
<g>
</g>
<g>
</g>
<g>
</g>
<g>
</g>
<g>
</g>
<g>
</g>
<g>
</g>
<g>
</g>
<g>
</g>
</svg>
