<?xml version="1.0" encoding="iso-8859-1"?>
<!-- Generator: Adobe Illustrator 19.0.0, SVG Export Plug-In . SVG Version: 6.00 Build 0)  -->
<svg version="1.1" id="Capa_1" xmlns="http://www.w3.org/2000/svg" xmlns:xlink="http://www.w3.org/1999/xlink" x="0px" y="0px"
	 viewBox="0 0 512 512" style="enable-background:new 0 0 512 512;" xml:space="preserve">
<circle style="fill:#7C00FF;" cx="256" cy="256" r="256"/>
<path style="fill:#6633CC;" d="M512,256c0-17.031-1.679-33.668-4.852-49.769l-81.657-81.657L86.509,387.426l119.722,119.723
	C222.332,510.321,238.969,512,256,512C397.385,512,512,397.385,512,256z"/>
<rect x="86.51" y="124.57" style="fill:#FFFFFF;" width="338.98" height="262.85"/>
<rect x="255.56" y="124.57" style="fill:#F0F0F0;" width="169.94" height="262.85"/>
<rect x="86.51" y="124.57" style="fill:#00EDFF;" width="338.98" height="41.666"/>
<rect x="255.56" y="124.57" style="fill:#00C9FF;" width="169.94" height="41.667"/>
<circle style="fill:#FF432E;" cx="112.5" cy="143.5" r="10.5"/>
<circle style="fill:#FFE000;" cx="148" cy="143.5" r="10.5"/>
<circle style="fill:#05BDE8;" cx="183" cy="143.5" r="10.5"/>
<path style="fill:#FF432E;" d="M311.943,242.255v60.793c-2.12-0.546-4.386-0.846-6.743-0.846c-11.797,0-21.361,7.407-21.361,16.545
	c0,9.137,9.564,16.545,21.361,16.545s21.361-7.407,21.361-16.545V252.83l46.235-13.398v46.619c-2.12-0.546-4.386-0.846-6.743-0.846
	c-11.797,0-21.361,7.407-21.361,16.545s9.564,16.545,21.361,16.545s21.361-7.407,21.361-16.545v-81.364L311.943,242.255z"/>
<g>
	<rect x="112.5" y="200" style="fill:#FFE000;" width="123.5" height="20.384"/>
	<rect x="112.5" y="271.23" style="fill:#FFE000;" width="123.5" height="20.384"/>
	<rect x="112.5" y="235.62" style="fill:#FFE000;" width="85.14" height="20.384"/>
</g>
<path style="fill:#00EDFF;" d="M218.5,355.5h-71c-9.665,0-17.5-7.835-17.5-17.5l0,0c0-9.665,7.835-17.5,17.5-17.5h71
	c9.665,0,17.5,7.835,17.5,17.5l0,0C236,347.665,228.165,355.5,218.5,355.5z"/>
<g>
</g>
<g>
</g>
<g>
</g>
<g>
</g>
<g>
</g>
<g>
</g>
<g>
</g>
<g>
</g>
<g>
</g>
<g>
</g>
<g>
</g>
<g>
</g>
<g>
</g>
<g>
</g>
<g>
</g>
</svg>
