<?xml version="1.0" encoding="iso-8859-1"?>
<!-- Generator: Adobe Illustrator 19.0.0, SVG Export Plug-In . SVG Version: 6.00 Build 0)  -->
<svg version="1.1" id="Capa_1" xmlns="http://www.w3.org/2000/svg" xmlns:xlink="http://www.w3.org/1999/xlink" x="0px" y="0px"
	 viewBox="0 0 512 512" style="enable-background:new 0 0 512 512;" xml:space="preserve">
<circle style="fill:#FFE000;" cx="256" cy="256" r="256"/>
<path style="fill:#FFC200;" d="M503.714,191.186L419.5,106.972l-327,304.723l89.398,89.398C205.357,508.176,230.23,512,256,512
	c141.385,0,256-114.615,256-256C512,233.606,509.116,211.888,503.714,191.186z"/>
<rect x="92.5" y="116.28" style="fill:#7C00FF;" width="327" height="295.41"/>
<rect x="255.56" y="116.28" style="fill:#6633CC;" width="163.94" height="295.41"/>
<rect x="113.26" y="166.24" style="fill:#00EDFF;" width="285.48" height="187.12"/>
<rect x="255.56" y="166.24" style="fill:#00C9FF;" width="143.19" height="187.12"/>
<path style="fill:#6633CC;" d="M297.716,248.393v60.793c-2.12-0.546-4.386-0.846-6.743-0.846c-11.797,0-21.361,7.407-21.361,16.545
	s9.564,16.545,21.361,16.545s21.361-7.407,21.361-16.545v-65.917l46.235-13.398v46.619c-2.12-0.546-4.385-0.846-6.743-0.846
	c-11.797,0-21.361,7.407-21.361,16.545c0,9.137,9.564,16.545,21.361,16.545s21.361-7.407,21.361-16.545v-81.364L297.716,248.393z"/>
<path style="fill:#7C00FF;" d="M183.235,244.404v49.707c-1.734-0.446-3.586-0.692-5.513-0.692c-9.646,0-17.466,6.057-17.466,13.528
	s7.82,13.528,17.466,13.528s17.466-6.057,17.466-13.528V253.05L215,247.309V235.2L183.235,244.404z"/>
<path style="fill:#FF432E;" d="M125.2,225.51L125.2,225.51c-18.06,0-32.7-14.64-32.7-32.7v-85.838h65.4v85.838
	C157.9,210.869,143.26,225.51,125.2,225.51z"/>
<path style="fill:#DB0404;" d="M386.8,225.51L386.8,225.51c-18.06,0-32.7-14.64-32.7-32.7v-85.838h65.4v85.838
	C419.5,210.869,404.86,225.51,386.8,225.51z"/>
<path style="fill:#FF6155;" d="M190.6,225.51L190.6,225.51c-18.06,0-32.7-14.64-32.7-32.7v-85.838h65.4v85.838
	C223.3,210.869,208.66,225.51,190.6,225.51z"/>
<path style="fill:#FF432E;" d="M256,225.51L256,225.51c-18.06,0-32.7-14.64-32.7-32.7v-85.838h65.4v85.838
	C288.7,210.869,274.06,225.51,256,225.51z"/>
<path style="fill:#DB0404;" d="M255.556,106.972v118.527c0.149,0.002,0.295,0.011,0.444,0.011l0,0c18.06,0,32.7-14.641,32.7-32.7
	v-85.838H255.556z"/>
<path style="fill:#E25B54;" d="M321.4,225.51L321.4,225.51c-18.06,0-32.7-14.64-32.7-32.7v-85.838h65.4v85.838
	C354.1,210.869,339.46,225.51,321.4,225.51z"/>
<g>
</g>
<g>
</g>
<g>
</g>
<g>
</g>
<g>
</g>
<g>
</g>
<g>
</g>
<g>
</g>
<g>
</g>
<g>
</g>
<g>
</g>
<g>
</g>
<g>
</g>
<g>
</g>
<g>
</g>
</svg>
