<?xml version="1.0" encoding="iso-8859-1"?>
<!-- Generator: Adobe Illustrator 19.0.0, SVG Export Plug-In . SVG Version: 6.00 Build 0)  -->
<svg version="1.1" id="Capa_1" xmlns="http://www.w3.org/2000/svg" xmlns:xlink="http://www.w3.org/1999/xlink" x="0px" y="0px"
	 viewBox="0 0 512 512" style="enable-background:new 0 0 512 512;" xml:space="preserve">
<circle style="fill:#FF432E;" cx="256" cy="256" r="256"/>
<path style="fill:#DB0404;" d="M508.771,296.67L357.245,145.144L228.889,95.111L154.755,428.63l82.696,82.696
	C243.578,511.765,249.761,512,256,512C383.542,512,489.285,418.725,508.771,296.67z"/>
<path style="fill:#FFFFFF;" d="M256,45.144l-101.245,100V428.63h202.49V145.144L256,45.144z M256,168.353
	c-16.395,0-29.686-13.291-29.686-29.687c0-16.395,13.291-29.686,29.686-29.686s29.686,13.291,29.686,29.686
	C285.686,155.062,272.395,168.353,256,168.353z"/>
<path style="fill:#F0F0F0;" d="M357.245,145.144L256,45.144l-0.444,0.439v63.409c0.149-0.002,0.295-0.011,0.444-0.011
	c16.395,0,29.686,13.291,29.686,29.686c0,16.396-13.291,29.687-29.686,29.687c-0.149,0-0.296-0.009-0.444-0.011V428.63h101.689
	V145.144z"/>
<path style="fill:#FFE000;" d="M357.245,145.144L256,45.144l-101.245,100V301h202.49V145.144z M256,168.353
	c-16.395,0-29.686-13.291-29.686-29.687c0-16.395,13.291-29.686,29.686-29.686s29.686,13.291,29.686,29.686
	C285.686,155.062,272.395,168.353,256,168.353z"/>
<path style="fill:#FFC200;" d="M256,108.98c16.395,0,29.686,13.291,29.686,29.686c0,16.396-13.291,29.687-29.686,29.687
	c-0.149,0-0.296-0.009-0.444-0.011V301h101.689V145.144L256,45.144V108.98z"/>
<rect x="179.75" y="318" style="fill:#7C00FF;" width="29" height="86"/>
<rect x="303.25" y="318" style="fill:#6633CC;" width="29" height="86"/>
<rect x="216.75" y="318" style="fill:#7C00FF;" width="14.5" height="65"/>
<rect x="279.75" y="318" style="fill:#6633CC;" width="14.5" height="65"/>
<rect x="238.5" y="318" style="fill:#7C00FF;" width="28.752" height="65"/>
<rect x="255.56" y="318" style="fill:#6633CC;" width="11.696" height="65"/>
<path style="fill:#7C00FF;" d="M226.316,202.276v60.793c-2.12-0.546-4.386-0.846-6.743-0.846c-11.797,0-21.361,7.407-21.361,16.545
	c0,9.137,9.564,16.545,21.361,16.545s21.361-7.407,21.361-16.545V212.85l46.235-13.398v46.619c-2.12-0.546-4.385-0.846-6.743-0.846
	c-11.797,0-21.361,7.407-21.361,16.545s9.564,16.545,21.361,16.545s21.361-7.407,21.361-16.545v-81.364L226.316,202.276z"/>
<path style="fill:#6633CC;" d="M255.556,193.803v14.81l31.613-9.162v46.619c-2.12-0.546-4.385-0.846-6.743-0.846
	c-11.797,0-21.361,7.407-21.361,16.545c0,9.137,9.564,16.544,21.361,16.544s21.361-7.407,21.361-16.544v-81.364L255.556,193.803z"/>
<g>
</g>
<g>
</g>
<g>
</g>
<g>
</g>
<g>
</g>
<g>
</g>
<g>
</g>
<g>
</g>
<g>
</g>
<g>
</g>
<g>
</g>
<g>
</g>
<g>
</g>
<g>
</g>
<g>
</g>
</svg>
