<?xml version="1.0" encoding="iso-8859-1"?>
<!-- Generator: Adobe Illustrator 19.0.0, SVG Export Plug-In . SVG Version: 6.00 Build 0)  -->
<svg version="1.1" id="Capa_1" xmlns="http://www.w3.org/2000/svg" xmlns:xlink="http://www.w3.org/1999/xlink" x="0px" y="0px"
	 viewBox="0 0 512 512" style="enable-background:new 0 0 512 512;" xml:space="preserve">
<circle style="fill:#7C00FF;" cx="256" cy="256" r="256"/>
<path style="fill:#6633CC;" d="M504.915,315.984L274.543,85.612L203,334l67.147,67.146l4.396,110.18
	C386.98,503.277,479.31,422.619,504.915,315.984z"/>
<path style="fill:#FFFFFF;" d="M256,235L256,235c-13.41,0-24.281-10.871-24.281-24.281V101.281C231.719,87.871,242.59,77,256,77l0,0
	c13.41,0,24.281,10.871,24.281,24.281v109.438C280.281,224.129,269.41,235,256,235z"/>
<path style="fill:#F0F0F0;" d="M256,77c-0.149,0-0.296,0.009-0.444,0.011v157.978c0.148,0.002,0.295,0.011,0.444,0.011
	c13.41,0,24.281-10.871,24.281-24.281V101.281C280.281,87.871,269.41,77,256,77z"/>
<path style="fill:#FF432E;" d="M237.457,511.327C243.582,511.765,249.763,512,256,512s12.418-0.235,18.543-0.673V317.855h-37.086
	V511.327z"/>
<path style="fill:#DB0404;" d="M255.556,317.855v194.141c0.148,0,0.296,0.004,0.444,0.004c6.237,0,12.418-0.235,18.543-0.673
	V317.855H255.556z"/>
<rect x="203" y="176" style="fill:#FFE000;" width="106" height="158"/>
<rect x="255.56" y="176" style="fill:#FFC200;" width="53.44" height="158"/>
<rect x="203" y="226.22" style="fill:#FFBC00;" width="106" height="57.57"/>
<rect x="255.56" y="226.22" style="fill:#FFA300;" width="53.44" height="57.57"/>
<rect x="231.72" y="129.5" style="fill:#F5F0EB;" width="48.563" height="31.5"/>
<rect x="255.56" y="129.5" style="fill:#EBE1DC;" width="24.726" height="31.5"/>
<g>
</g>
<g>
</g>
<g>
</g>
<g>
</g>
<g>
</g>
<g>
</g>
<g>
</g>
<g>
</g>
<g>
</g>
<g>
</g>
<g>
</g>
<g>
</g>
<g>
</g>
<g>
</g>
<g>
</g>
</svg>
