<?xml version="1.0" encoding="iso-8859-1"?>
<!-- Generator: Adobe Illustrator 19.0.0, SVG Export Plug-In . SVG Version: 6.00 Build 0)  -->
<svg version="1.1" id="Capa_1" xmlns="http://www.w3.org/2000/svg" xmlns:xlink="http://www.w3.org/1999/xlink" x="0px" y="0px"
	 viewBox="0 0 512 512" style="enable-background:new 0 0 512 512;" xml:space="preserve">
<circle style="fill:#FFE000;" cx="256" cy="256" r="256"/>
<path style="fill:#FFC200;" d="M512,256c0-1.418-0.031-2.829-0.054-4.242L358.457,98.269H179.976l-55.357,147.517L256,452.723
	l53.632,53.632C425.266,481.702,512,378.988,512,256z"/>
<path style="fill:#FF432E;" d="M256,59.277c-85.131,0-154.144,69.013-154.144,154.144C101.856,347.095,256,452.723,256,452.723
	S410.144,338.56,410.144,213.422C410.144,128.29,341.132,59.277,256,59.277z M256,323.366c-60.721,0-109.944-49.224-109.944-109.945
	S195.279,103.477,256,103.477s109.944,49.224,109.944,109.944S316.721,323.366,256,323.366z"/>
<path style="fill:#DB0404;" d="M256,103.477c60.721,0,109.944,49.224,109.944,109.945S316.72,323.366,256,323.366v129.356
	c0,0,154.144-114.163,154.144-239.301c0-85.132-69.013-154.145-154.144-154.145L256,103.477L256,103.477z"/>
<path style="fill:#7C00FF;" d="M221.385,170.431v3.971v13.923v55.556c-2.562-0.66-5.299-1.022-8.146-1.022
	c-14.254,0-25.808,8.95-25.808,19.99s11.555,19.99,25.808,19.99c14.254,0,25.808-8.95,25.808-19.99v-79.642l55.861-16.188v56.325
	c-2.562-0.66-5.299-1.022-8.146-1.022c-14.254,0-25.808,8.95-25.808,19.99s11.555,19.99,25.808,19.99
	c14.254,0,25.808-8.95,25.808-19.99V161.9v-8.036v-9.858L221.385,170.431z"/>
<path style="fill:#5806C1;" d="M255.556,160.528v17.894l39.352-11.404v56.325c-2.562-0.66-5.299-1.022-8.146-1.022
	c-14.254,0-25.808,8.95-25.808,19.99c0,11.04,11.555,19.99,25.808,19.99s25.808-8.95,25.808-19.99V161.9v-8.036v-9.858
	L255.556,160.528z"/>
<g>
</g>
<g>
</g>
<g>
</g>
<g>
</g>
<g>
</g>
<g>
</g>
<g>
</g>
<g>
</g>
<g>
</g>
<g>
</g>
<g>
</g>
<g>
</g>
<g>
</g>
<g>
</g>
<g>
</g>
</svg>
