<?xml version="1.0" encoding="iso-8859-1"?>
<!-- Generator: Adobe Illustrator 19.0.0, SVG Export Plug-In . SVG Version: 6.00 Build 0)  -->
<svg version="1.1" id="Capa_1" xmlns="http://www.w3.org/2000/svg" xmlns:xlink="http://www.w3.org/1999/xlink" x="0px" y="0px"
	 viewBox="0 0 512 512" style="enable-background:new 0 0 512 512;" xml:space="preserve">
<circle style="fill:#7C00FF;" cx="256" cy="256" r="256"/>
<path style="fill:#6633CC;" d="M511.978,257.76l-66.097-66.097L351.11,309.137L233.637,191.664L60,329.5l182.122,182.122
	C246.718,511.868,251.343,512,256,512C396.796,512,511.029,398.333,511.978,257.76z"/>
<rect x="219" y="244.5" style="fill:#FFE000;" width="74" height="47"/>
<rect x="255.56" y="244.5" style="fill:#FFC200;" width="37.444" height="47"/>
<rect x="70.23" y="201.5" style="fill:#FFE000;" width="159.3" height="128"/>
<g>
	<rect x="136.41" y="201.5" style="fill:#FFBC00;" width="26.937" height="128"/>
	<rect x="212.82" y="208.5" style="fill:#FFBC00;" width="26.937" height="121"/>
	<rect x="60" y="208.5" style="fill:#FFBC00;" width="26.937" height="121"/>
</g>
<path style="fill:#FFFFFF;" d="M239.756,218.18H60v-9.82c0-14.282,11.578-25.859,25.859-25.859h128.037
	c14.282,0,25.859,11.578,25.859,25.859v9.82H239.756z"/>
<rect x="282.47" y="201.5" style="fill:#FFC200;" width="159.3" height="128"/>
<g>
	<rect x="348.65" y="201.5" style="fill:#FF9D00;" width="26.937" height="128"/>
	<rect x="425.06" y="208.5" style="fill:#FF9D00;" width="26.937" height="121"/>
	<rect x="272.24" y="208.5" style="fill:#FF9D00;" width="26.937" height="121"/>
</g>
<path style="fill:#F0F0F0;" d="M452,218.18H272.244v-9.82c0-14.282,11.578-25.859,25.859-25.859H426.14
	c14.282,0,25.859,11.578,25.859,25.859L452,218.18L452,218.18z"/>
<g>
</g>
<g>
</g>
<g>
</g>
<g>
</g>
<g>
</g>
<g>
</g>
<g>
</g>
<g>
</g>
<g>
</g>
<g>
</g>
<g>
</g>
<g>
</g>
<g>
</g>
<g>
</g>
<g>
</g>
</svg>
