<?xml version="1.0" encoding="iso-8859-1"?>
<!-- Generator: Adobe Illustrator 19.0.0, SVG Export Plug-In . SVG Version: 6.00 Build 0)  -->
<svg version="1.1" id="Capa_1" xmlns="http://www.w3.org/2000/svg" xmlns:xlink="http://www.w3.org/1999/xlink" x="0px" y="0px"
	 viewBox="0 0 512 512" style="enable-background:new 0 0 512 512;" xml:space="preserve">
<circle style="fill:#FF432E;" cx="256" cy="256" r="256"/>
<path style="fill:#DB0404;" d="M511.975,257.949l-175.45-175.45l-43.983,90.046L212.97,92.973l-40.445,40.75l64.153,64.154
	l24,39.904l-94.109,192.671l81.41,81.41c2.665,0.082,5.336,0.137,8.021,0.137C396.733,512,510.926,398.435,511.975,257.949z"/>
<path style="fill:#FFE000;" d="M218.029,101.004l-7.977-12.664c-6.841-10.861-20.6-15.083-32.357-9.929
	c-11.757,5.155-17.973,18.135-14.619,30.526l3.91,14.447c3.422,12.642,15.47,20.317,27.743,19.018l114.6,283.025
	c3.975,9.818,15.273,14.414,24.973,10.161c9.7-4.253,13.973-15.677,9.446-25.252L213.221,134.295
	C222.491,126.148,225.009,112.086,218.029,101.004z"/>
<path style="fill:#FFC200;" d="M343.749,410.336L213.221,134.295c9.27-8.147,11.788-22.208,4.808-33.291l-7.977-12.664
	c-6.783-10.769-20.365-14.999-32.054-10.045l156.823,357.033C344.145,430.897,348.194,419.735,343.749,410.336z"/>
<path style="fill:#FFBC00;" d="M289.702,101.004l7.977-12.664c6.841-10.861,20.6-15.083,32.357-9.929
	c11.757,5.155,17.973,18.135,14.619,30.526l-3.91,14.447c-3.422,12.642-15.47,20.317-27.743,19.018L198.4,425.427
	c-3.975,9.818-15.273,14.414-24.973,10.161s-13.973-15.677-9.446-25.252L294.51,134.295
	C285.24,126.148,282.722,112.086,289.702,101.004z"/>
<path style="fill:#FF9D00;" d="M330.035,78.412c-0.328-0.144-0.662-0.253-0.993-0.383l-155.793,357.47
	c0.061,0.028,0.117,0.063,0.178,0.089c9.7,4.253,20.998-0.343,24.973-10.161L313,142.403c12.273,1.298,24.321-6.376,27.743-19.018
	l3.91-14.447C348.008,96.547,341.792,83.567,330.035,78.412z"/>
<g>
</g>
<g>
</g>
<g>
</g>
<g>
</g>
<g>
</g>
<g>
</g>
<g>
</g>
<g>
</g>
<g>
</g>
<g>
</g>
<g>
</g>
<g>
</g>
<g>
</g>
<g>
</g>
<g>
</g>
</svg>
