<?xml version="1.0" encoding="iso-8859-1"?>
<!-- Generator: Adobe Illustrator 19.0.0, SVG Export Plug-In . SVG Version: 6.00 Build 0)  -->
<svg version="1.1" id="Capa_1" xmlns="http://www.w3.org/2000/svg" xmlns:xlink="http://www.w3.org/1999/xlink" x="0px" y="0px"
	 viewBox="0 0 512 512" style="enable-background:new 0 0 512 512;" xml:space="preserve">
<circle style="fill:#7C00FF;" cx="256" cy="256" r="256"/>
<path style="fill:#6633CC;" d="M512,256c0-3.716-0.097-7.41-0.254-11.087L343.833,77L128.664,441l62.786,62.786
	C212.072,509.143,233.702,512,256,512C397.385,512,512,397.385,512,256z"/>
<path style="fill:#FFFFFF;" d="M377.291,229.884c-20.59-10.952-33.458-32.371-33.458-55.693V77H168.167v97.191
	c0,23.322-12.867,44.741-33.458,55.693l-6.045,3.215V441h254.672V233.1L377.291,229.884z"/>
<path style="fill:#F0F0F0;" d="M383.336,233.1l-6.045-3.215c-20.59-10.952-33.458-32.371-33.458-55.693V77h-88.278v364h127.78V233.1
	H383.336z"/>
<path style="fill:#EBE1DC;" d="M256,193.701L256,193.701c-27.6,0-49.974-22.374-49.974-49.974V77h99.948v66.727
	C305.974,171.326,283.6,193.701,256,193.701z"/>
<path style="fill:#CEC8C4;" d="M255.556,77v116.689c0.149,0.001,0.295,0.011,0.444,0.011l0,0c27.6,0,49.974-22.375,49.974-49.974V77
	H255.556z"/>
<path style="fill:#00EDFF;" d="M180.979,256.063v78.151c-2.726-0.702-5.638-1.088-8.668-1.088c-15.166,0-27.46,9.522-27.46,21.269
	c0,11.746,12.294,21.269,27.46,21.269c15.166,0,27.46-9.522,27.46-21.269v-84.739l59.436-17.224v59.93
	c-2.726-0.702-5.638-1.088-8.668-1.088c-15.166,0-27.46,9.522-27.46,21.269s12.294,21.269,27.46,21.269
	c15.166,0,27.46-9.522,27.46-21.269V227.947L180.979,256.063z"/>
<path style="fill:#00C9FF;" d="M255.556,234.452v19.039l3.652-1.059v59.931c-1.182-0.305-2.405-0.537-3.652-0.717v41.806
	C268.325,351.626,278,342.963,278,332.544V227.947L255.556,234.452z"/>
<path style="fill:#FFE000;" d="M314.128,296.116v78.151c-2.726-0.702-5.638-1.088-8.668-1.088c-15.166,0-27.46,9.522-27.46,21.269
	s12.294,21.269,27.46,21.269s27.46-9.522,27.46-21.269v-84.739l27.654-8.014v-19.039L314.128,296.116z"/>
<g>
</g>
<g>
</g>
<g>
</g>
<g>
</g>
<g>
</g>
<g>
</g>
<g>
</g>
<g>
</g>
<g>
</g>
<g>
</g>
<g>
</g>
<g>
</g>
<g>
</g>
<g>
</g>
<g>
</g>
</svg>
