<?xml version="1.0" encoding="iso-8859-1"?>
<!-- Generator: Adobe Illustrator 19.0.0, SVG Export Plug-In . SVG Version: 6.00 Build 0)  -->
<svg version="1.1" id="Capa_1" xmlns="http://www.w3.org/2000/svg" xmlns:xlink="http://www.w3.org/1999/xlink" x="0px" y="0px"
	 viewBox="0 0 512 512" style="enable-background:new 0 0 512 512;" xml:space="preserve">
<circle style="fill:#FF432E;" cx="256" cy="256" r="256"/>
<path style="fill:#DB0404;" d="M512,256c0-2.375-0.038-4.742-0.102-7.102L413,150l-46.675,18.825L274.5,77l-31.176,76.525L99,177
	l65.842,65.842L117,429l74.91,74.91c20.483,5.28,41.958,8.09,64.09,8.09C397.385,512,512,397.385,512,256z"/>
<g>
	<rect x="132.92" y="161.02" style="fill:#EBE1DC;" width="24.16" height="42.643"/>
	<rect x="206.92" y="161.02" style="fill:#EBE1DC;" width="24.16" height="42.643"/>
</g>
<g>
	<rect x="280.92" y="161.02" style="fill:#D1C6C1;" width="24.16" height="42.643"/>
	<rect x="354.92" y="161.02" style="fill:#D1C6C1;" width="24.16" height="42.643"/>
</g>
<g>
	<rect x="117" y="195" style="fill:#FFE000;" width="56" height="234"/>
	<rect x="191" y="195" style="fill:#FFE000;" width="56" height="206.87"/>
</g>
<g>
	<rect x="265" y="195" style="fill:#FFC200;" width="56" height="169.98"/>
	<rect x="339" y="195" style="fill:#FFC200;" width="56" height="131.22"/>
</g>
<rect x="237.5" y="77" style="fill:#EBE1DC;" width="37" height="80"/>
<rect x="255.56" y="77" style="fill:#D1C6C1;" width="18.944" height="80"/>
<rect x="99" y="150" style="fill:#FFFFFF;" width="314" height="27"/>
<rect x="255.56" y="150" style="fill:#F0F0F0;" width="157.44" height="27"/>
<g>
</g>
<g>
</g>
<g>
</g>
<g>
</g>
<g>
</g>
<g>
</g>
<g>
</g>
<g>
</g>
<g>
</g>
<g>
</g>
<g>
</g>
<g>
</g>
<g>
</g>
<g>
</g>
<g>
</g>
</svg>
