<?xml version="1.0" encoding="iso-8859-1"?>
<!-- Generator: Adobe Illustrator 19.0.0, SVG Export Plug-In . SVG Version: 6.00 Build 0)  -->
<svg version="1.1" id="Capa_1" xmlns="http://www.w3.org/2000/svg" xmlns:xlink="http://www.w3.org/1999/xlink" x="0px" y="0px"
	 viewBox="0 0 512 512" style="enable-background:new 0 0 512 512;" xml:space="preserve">
<circle style="fill:#FFE000;" cx="256" cy="256" r="256"/>
<path style="fill:#FFC200;" d="M508.956,295.554L285.873,72.47L122.369,388.55l123.222,123.222C249.045,511.91,252.512,512,256,512
	C383.932,512,489.94,418.157,508.956,295.554z"/>
<path style="fill:#7C00FF;" d="M112.277,269.802L216.943,83.968c17.143-30.437,60.97-30.437,78.113,0l104.667,185.834
	c39.742,70.56-11.245,157.795-92.227,157.795H204.504C123.522,427.597,72.535,340.363,112.277,269.802z"/>
<path style="fill:#6633CC;" d="M399.723,269.802L295.056,83.968c-8.655-15.366-24.111-22.963-39.501-22.814v366.442h51.941
	C388.479,427.596,439.465,340.362,399.723,269.802z"/>
<circle style="fill:#9543FF;" cx="256" cy="277" r="79.5"/>
<path style="fill:#8144E2;" d="M256,197.5c-0.149,0-0.296,0.01-0.444,0.011v158.97c0.149,0,0.295,0.011,0.444,0.011
	c43.904,0,79.496-35.592,79.496-79.496S299.904,197.5,256,197.5z"/>
<g>
</g>
<g>
</g>
<g>
</g>
<g>
</g>
<g>
</g>
<g>
</g>
<g>
</g>
<g>
</g>
<g>
</g>
<g>
</g>
<g>
</g>
<g>
</g>
<g>
</g>
<g>
</g>
<g>
</g>
</svg>
