<?xml version="1.0" encoding="iso-8859-1"?>
<!-- Generator: Adobe Illustrator 19.0.0, SVG Export Plug-In . SVG Version: 6.00 Build 0)  -->
<svg version="1.1" id="Capa_1" xmlns="http://www.w3.org/2000/svg" xmlns:xlink="http://www.w3.org/1999/xlink" x="0px" y="0px"
	 viewBox="0 0 512 512" style="enable-background:new 0 0 512 512;" xml:space="preserve">
<circle style="fill:#FF432E;" cx="256" cy="256" r="256"/>
<path style="fill:#DB0404;" d="M512,256c0-3.56-0.092-7.099-0.236-10.624l-91.556-91.556L90.175,356.203L245.75,511.778
	c3.402,0.134,6.815,0.222,10.25,0.222C397.385,512,512,397.385,512,256z"/>
<path style="fill:#FFE000;" d="M395.205,369.5h-278.41c-18.388,0-33.295-14.907-33.295-33.295v-160.41
	c0-18.388,14.907-33.295,33.295-33.295h278.41c18.388,0,33.295,14.907,33.295,33.295v160.41
	C428.5,354.593,413.593,369.5,395.205,369.5z"/>
<path style="fill:#FFC200;" d="M395.205,142.5H255v227h140.205c18.388,0,33.295-14.907,33.295-33.295v-160.41
	C428.5,157.407,413.593,142.5,395.205,142.5z"/>
<rect x="83.5" y="273.95" style="fill:#7C00FF;" width="345" height="53.715"/>
<g>
	<rect x="255" y="273.95" style="fill:#4D20BC;" width="173.5" height="53.715"/>
	<path style="fill:#4D20BC;" d="M322.866,176.743v3.15v11.046v44.074c-2.032-0.523-4.203-0.811-6.463-0.811
		c-11.308,0-20.474,7.1-20.474,15.858s9.167,15.858,20.474,15.858s20.474-7.1,20.474-15.858v-63.181l44.316-12.842v44.684
		c-2.032-0.523-4.203-0.811-6.463-0.811c-11.308,0-20.474,7.1-20.474,15.858s9.167,15.858,20.474,15.858
		c11.308,0,20.474-7.1,20.474-15.858v-63.791V163.6v-7.82L322.866,176.743z"/>
</g>
<g>
	<rect x="108.5" y="176" style="fill:#FFFFFF;" width="121" height="21.5"/>
	<rect x="108.5" y="210.85" style="fill:#FFFFFF;" width="75.17" height="21.5"/>
</g>
<g>
</g>
<g>
</g>
<g>
</g>
<g>
</g>
<g>
</g>
<g>
</g>
<g>
</g>
<g>
</g>
<g>
</g>
<g>
</g>
<g>
</g>
<g>
</g>
<g>
</g>
<g>
</g>
<g>
</g>
</svg>
