<?xml version="1.0" encoding="iso-8859-1"?>
<!-- Generator: Adobe Illustrator 19.0.0, SVG Export Plug-In . SVG Version: 6.00 Build 0)  -->
<svg version="1.1" id="Capa_1" xmlns="http://www.w3.org/2000/svg" xmlns:xlink="http://www.w3.org/1999/xlink" x="0px" y="0px"
	 viewBox="0 0 512 512" style="enable-background:new 0 0 512 512;" xml:space="preserve">
<circle style="fill:#7C00FF;" cx="256" cy="256" r="256"/>
<path style="fill:#6633CC;" d="M512,256c0-11.256-0.733-22.34-2.142-33.213L402.501,115.43L106.458,377.527l133.989,133.989
	C245.594,511.825,250.776,512,256,512C397.385,512,512,397.385,512,256z"/>
<circle style="fill:#FFBC00;" cx="287.24" cy="214.9" r="152.24"/>
<path style="fill:#FF9D00;" d="M287.242,62.653c-0.007,0-0.013,0-0.02,0v304.484c0.007,0,0.013,0,0.02,0
	c84.081,0,152.242-68.161,152.242-152.242S371.323,62.653,287.242,62.653z"/>
<circle style="fill:#FFE000;" cx="218.02" cy="273.95" r="152.24"/>
<path style="fill:#FFC200;" d="M218.023,121.709c-0.268,0-0.533,0.009-0.801,0.01v304.464c0.267,0.001,0.533,0.01,0.801,0.01
	c84.081,0,152.242-68.161,152.242-152.242S302.104,121.709,218.023,121.709z"/>
<circle style="fill:#FFBC00;" cx="218.02" cy="273.95" r="89.96"/>
<path style="fill:#FF9D00;" d="M218.023,183.987c-0.268,0-0.534,0.008-0.801,0.01v179.908c0.267,0.002,0.533,0.01,0.801,0.01
	c49.686,0,89.964-40.279,89.964-89.964S267.709,183.987,218.023,183.987z"/>
<path style="fill:#FFFFFF;" d="M198.758,265.918c-8.673,23.539-14.345,56.215-14.345,67.61c0,18.562,15.048,33.61,33.61,33.61
	s33.61-15.048,33.61-33.61c0-11.395-5.672-44.071-14.345-67.61L198.758,265.918L198.758,265.918z"/>
<path style="fill:#F0F0F0;" d="M237.289,265.917h-20.066v101.2c0.267,0.006,0.532,0.02,0.801,0.02
	c18.562,0,33.61-15.048,33.61-33.61C251.633,322.133,245.962,289.457,237.289,265.917z"/>
<g>
</g>
<g>
</g>
<g>
</g>
<g>
</g>
<g>
</g>
<g>
</g>
<g>
</g>
<g>
</g>
<g>
</g>
<g>
</g>
<g>
</g>
<g>
</g>
<g>
</g>
<g>
</g>
<g>
</g>
</svg>
