<?xml version="1.0" encoding="iso-8859-1"?>
<!-- Generator: Adobe Illustrator 19.0.0, SVG Export Plug-In . SVG Version: 6.00 Build 0)  -->
<svg version="1.1" id="Capa_1" xmlns="http://www.w3.org/2000/svg" xmlns:xlink="http://www.w3.org/1999/xlink" x="0px" y="0px"
	 viewBox="0 0 512 512" style="enable-background:new 0 0 512 512;" xml:space="preserve">
<circle style="fill:#7C00FF;" cx="256" cy="256" r="256"/>
<path style="fill:#6633CC;" d="M512,256c0-6.745-0.265-13.427-0.777-20.04l-86.861-86.862l-20.821,33.27L291.323,70.151
	L87.63,214.319l52.085,52.085l-52.077,96.497L235.96,511.223C242.573,511.735,249.255,512,256,512C397.385,512,512,397.385,512,256z
	"/>
<circle style="fill:#FFE000;" cx="256" cy="404.58" r="51.36"/>
<path style="fill:#FFC200;" d="M256,353.22c-0.149,0-0.296,0.01-0.444,0.011v102.701c0.149,0.001,0.295,0.011,0.444,0.011
	c28.366,0,51.362-22.996,51.362-51.362S284.366,353.22,256,353.22z"/>
<circle style="fill:#FFBC00;" cx="256" cy="404.58" r="32.605"/>
<path style="fill:#FF9D00;" d="M256,371.977c-0.149,0-0.296,0.009-0.444,0.011v65.188c0.149,0.002,0.295,0.011,0.444,0.011
	c18.007,0,32.605-14.598,32.605-32.605S274.007,371.977,256,371.977z"/>
<circle style="fill:#FFE000;" cx="256" cy="107.42" r="51.36"/>
<path style="fill:#FFC200;" d="M256,56.056c-0.149,0-0.296,0.01-0.444,0.011v102.701c0.149,0.001,0.295,0.011,0.444,0.011
	c28.366,0,51.362-22.995,51.362-51.362S284.366,56.056,256,56.056z"/>
<circle style="fill:#FFBC00;" cx="256" cy="107.42" r="32.605"/>
<path style="fill:#FF9D00;" d="M256,74.813c-0.149,0-0.296,0.009-0.444,0.011v65.188c0.149,0.002,0.295,0.011,0.444,0.011
	c18.007,0,32.605-14.598,32.605-32.605S274.007,74.813,256,74.813z"/>
<circle style="fill:#FFC200;" cx="384.68" cy="330.29" r="51.36"/>
<circle style="fill:#FF9D00;" cx="384.68" cy="330.29" r="32.605"/>
<circle style="fill:#FFE000;" cx="127.32" cy="181.71" r="51.36"/>
<circle style="fill:#FFBC00;" cx="127.32" cy="181.71" r="32.605"/>
<circle style="fill:#FFC200;" cx="384.68" cy="181.71" r="51.36"/>
<circle style="fill:#FF9D00;" cx="384.68" cy="181.71" r="32.605"/>
<circle style="fill:#FFE000;" cx="127.32" cy="330.29" r="51.36"/>
<circle style="fill:#FFBC00;" cx="127.32" cy="330.29" r="32.605"/>
<path style="fill:#FF432E;" d="M256,109.252c-81.047,0-146.748,65.701-146.748,146.748S174.953,402.748,256,402.748
	S402.748,337.047,402.748,256S337.047,109.252,256,109.252z M256,368.812c-62.305,0-112.812-50.508-112.812-112.812
	c0-62.305,50.508-112.812,112.812-112.812S368.812,193.695,368.812,256S318.305,368.812,256,368.812z"/>
<path style="fill:#DB0404;" d="M256,109.252c-0.149,0-0.296,0.005-0.444,0.006v33.936c0.148,0,0.296-0.006,0.444-0.006
	c62.305,0,112.812,50.508,112.812,112.812c0,62.305-50.508,112.813-112.812,112.813c-0.149,0-0.296-0.005-0.444-0.006v33.936
	c0.148,0,0.296,0.005,0.444,0.005c81.047,0,146.748-65.701,146.748-146.748S337.047,109.252,256,109.252z"/>
<g>
</g>
<g>
</g>
<g>
</g>
<g>
</g>
<g>
</g>
<g>
</g>
<g>
</g>
<g>
</g>
<g>
</g>
<g>
</g>
<g>
</g>
<g>
</g>
<g>
</g>
<g>
</g>
<g>
</g>
</svg>
