<?xml version="1.0" encoding="iso-8859-1"?>
<!-- Generator: Adobe Illustrator 19.0.0, SVG Export Plug-In . SVG Version: 6.00 Build 0)  -->
<svg version="1.1" id="Capa_1" xmlns="http://www.w3.org/2000/svg" xmlns:xlink="http://www.w3.org/1999/xlink" x="0px" y="0px"
	 viewBox="0 0 512 512" style="enable-background:new 0 0 512 512;" xml:space="preserve">
<circle style="fill:#7C00FF;" cx="256" cy="256" r="256"/>
<path style="fill:#6633CC;" d="M171.515,300.579L69.169,320.557l191.386,191.386C399.836,509.51,512,395.862,512,256
	c0-11.478-0.768-22.775-2.231-33.854l-84.532-84.532L171.515,300.579z"/>
<polygon style="fill:#00EDFF;" points="198.879,450.267 169.019,350.417 69.169,320.557 253.253,232.855 286.58,266.182 "/>
<polygon style="fill:#03E0E5;" points="169.019,350.417 198.879,450.267 286.58,266.182 269.977,249.579 "/>
<rect x="197.667" y="293.222" transform="matrix(-0.7071 -0.7071 0.7071 -0.7071 161.0656 667.8619)" style="fill:#0AC0EA;" width="42.37" height="14.702"/>
<rect x="215.825" y="300.748" transform="matrix(0.7071 0.7071 -0.7071 0.7071 284.1622 -69.8313)" style="fill:#07B6D3;" width="21.1" height="14.702"/>
<rect x="180.781" y="310.111" transform="matrix(-0.7071 -0.7071 0.7071 -0.7071 120.2974 684.7532)" style="fill:#0AC0EA;" width="42.37" height="14.702"/>
<rect x="198.934" y="317.645" transform="matrix(0.7071 0.7071 -0.7071 0.7071 291.1629 -52.9383)" style="fill:#07B6D3;" width="21.1" height="14.702"/>
<rect x="286.742" y="116.456" transform="matrix(-0.7071 -0.7071 0.7071 -0.7071 370.7041 581.0399)" style="fill:#FFFFFF;" width="37.896" height="194.578"/>
<rect x="302.997" y="123.186" transform="matrix(0.7071 0.7071 -0.7071 0.7071 247.4077 -156.3444)" style="fill:#F0F0F0;" width="18.863" height="194.578"/>
<polygon style="fill:#00EDFF;" points="373.438,178.759 340.676,145.997 371.166,104.853 425.237,137.615 "/>
<polygon style="fill:#03E0E5;" points="425.237,137.615 398.276,121.279 357.117,162.438 373.438,178.759 "/>
<g>
</g>
<g>
</g>
<g>
</g>
<g>
</g>
<g>
</g>
<g>
</g>
<g>
</g>
<g>
</g>
<g>
</g>
<g>
</g>
<g>
</g>
<g>
</g>
<g>
</g>
<g>
</g>
<g>
</g>
</svg>
