<?xml version="1.0" encoding="iso-8859-1"?>
<!-- Generator: Adobe Illustrator 19.0.0, SVG Export Plug-In . SVG Version: 6.00 Build 0)  -->
<svg version="1.1" id="Capa_1" xmlns="http://www.w3.org/2000/svg" xmlns:xlink="http://www.w3.org/1999/xlink" x="0px" y="0px"
	 viewBox="0 0 512 512" style="enable-background:new 0 0 512 512;" xml:space="preserve">
<circle style="fill:#FFE000;" cx="256" cy="256" r="256"/>
<path style="fill:#FFC200;" d="M512,256c0-7.412-0.333-14.746-0.951-21.999L389.5,112.452L215.69,229L108.786,385.387
	l125.706,125.706C241.585,511.683,248.755,512,256,512C397.385,512,512,397.385,512,256z"/>
<path style="fill:#7C00FF;" d="M256,60C147.752,60,60,147.752,60,256s87.752,196,196,196s196-87.752,196-196S364.248,60,256,60z
	 M256,283c-14.912,0-27-12.088-27-27c0-14.912,12.088-27,27-27c14.912,0,27,12.088,27,27C283,270.912,270.912,283,256,283z"/>
<path style="fill:#5806C1;" d="M256,60c-0.149,0-0.296,0.005-0.444,0.006v169.005c0.149-0.002,0.295-0.011,0.444-0.011
	c14.912,0,27,12.088,27,27c0,14.912-12.088,27-27,27c-0.149,0-0.296-0.009-0.445-0.011v169.005c0.149,0,0.296,0.006,0.444,0.006
	c108.248,0,196-87.752,196-196S364.248,60,256,60z"/>
<path style="fill:#3A1B9B;" d="M256,416.827C255.998,416.827,256.002,416.827,256,416.827v-24c36.549,0,70.909-14.232,96.752-40.076
	c25.844-25.843,40.076-60.203,40.076-96.751h24c0,42.959-16.729,83.346-47.105,113.722C339.349,400.097,298.956,416.827,256,416.827
	z"/>
<g>
	<path style="fill:#4D20BC;" d="M119.172,256h-24c0-42.959,16.729-83.346,47.105-113.722C172.652,111.903,213.043,95.172,256,95.172
		c0.003,0-0.002,0,0,0v24c-36.548,0-70.909,14.232-96.752,40.076C133.404,185.091,119.172,219.452,119.172,256z"/>
	<path style="fill:#4D20BC;" d="M256,174.992c-44.739,0-81.008,36.268-81.008,81.008S211.26,337.008,256,337.008
		c44.739,0,81.008-36.268,81.008-81.008S300.739,174.992,256,174.992z M256,283c-14.912,0-27-12.088-27-27c0-14.912,12.088-27,27-27
		c14.912,0,27,12.088,27,27C283,270.912,270.912,283,256,283z"/>
</g>
<path style="fill:#3A1B9B;" d="M256,174.992c-0.149,0-0.296,0.01-0.444,0.011v54.008c0.149-0.002,0.295-0.011,0.444-0.011
	c14.912,0,27,12.088,27,27c0,14.912-12.088,27-27,27c-0.149,0-0.296-0.009-0.445-0.011v54.008c0.149,0.001,0.295,0.011,0.444,0.011
	c44.739,0,81.008-36.268,81.008-81.008S300.739,174.992,256,174.992z"/>
<g>
</g>
<g>
</g>
<g>
</g>
<g>
</g>
<g>
</g>
<g>
</g>
<g>
</g>
<g>
</g>
<g>
</g>
<g>
</g>
<g>
</g>
<g>
</g>
<g>
</g>
<g>
</g>
<g>
</g>
</svg>
