<?xml version="1.0" encoding="iso-8859-1"?>
<!-- Generator: Adobe Illustrator 19.0.0, SVG Export Plug-In . SVG Version: 6.00 Build 0)  -->
<svg version="1.1" id="Capa_1" xmlns="http://www.w3.org/2000/svg" xmlns:xlink="http://www.w3.org/1999/xlink" x="0px" y="0px"
	 viewBox="0 0 512 512" style="enable-background:new 0 0 512 512;" xml:space="preserve">
<circle style="fill:#00EDFF;" cx="256" cy="256" r="256"/>
<path style="fill:#00C9FF;" d="M512,256c0-7.332-0.326-14.587-0.93-21.763l-69.903-69.903l-27.388,23.946L327,101.5l-29.268,7.732
	L265.5,77L250,103.25L185,117l73.548,73.548v30.833L201.5,164.333L70.833,250l72.68,72.68l-39.88,79.621l105.381,105.381
	C224.248,510.508,239.949,512,256,512C397.385,512,512,397.385,512,256z"/>
<g>
	<rect x="246.5" y="77" style="fill:#FF432E;" width="19" height="173"/>
	<polyline style="fill:#FF432E;" points="246.5,250 255.556,250 255.556,77 246.5,77 	"/>
</g>
<rect x="255.56" y="77" style="fill:#DB0404;" width="9.944" height="173"/>
<rect x="366.58" y="227.25" style="fill:#D31C18;" width="19" height="182.67"/>
<rect x="126.67" y="226.33" style="fill:#ED2415;" width="19" height="182.67"/>
<rect x="70.833" y="164.33" style="fill:#FF432E;" width="130.67" height="85.67"/>
<rect x="70.833" y="164.33" style="fill:#FFFFFF;" width="130.67" height="18"/>
<rect x="310.5" y="164.33" style="fill:#DB0404;" width="130.67" height="85.67"/>
<rect x="310.5" y="164.33" style="fill:#F0F0F0;" width="130.67" height="18"/>
<circle style="fill:#7C00FF;" cx="256" cy="310.33" r="102.33"/>
<path style="fill:#6633CC;" d="M256,208c-0.149,0-0.296,0.005-0.444,0.006v204.656c0.148,0,0.296,0.005,0.444,0.005
	c56.517,0,102.333-45.816,102.333-102.333C358.333,253.816,312.517,208,256,208z"/>
<circle style="fill:#FFFFFF;" cx="256" cy="310.33" r="81.71"/>
<path style="fill:#F0F0F0;" d="M256,228.622c-0.149,0-0.296,0.01-0.444,0.011v163.401c0.149,0.001,0.295,0.011,0.444,0.011
	c45.128,0,81.712-36.583,81.712-81.712C337.712,265.205,301.128,228.622,256,228.622z"/>
<rect x="107.048" y="348.196" transform="matrix(-0.7071 -0.7071 0.7071 -0.7071 -66.8787 724.1996)" style="fill:#ED2415;" width="18.999" height="55.509"/>
<rect x="367.7" y="366.448" transform="matrix(-0.7071 -0.7071 0.7071 -0.7071 409.2488 921.4114)" style="fill:#D31C18;" width="55.509" height="19"/>
<rect x="128.037" y="366.459" transform="matrix(-0.7071 -0.7071 0.7071 -0.7071 0.1102 751.9628)" style="fill:#ED2415;" width="55.509" height="18.999"/>
<rect x="347.827" y="348.198" transform="matrix(-0.7071 -0.7071 0.7071 -0.7071 344.157 894.4603)" style="fill:#D31C18;" width="19" height="55.509"/>
<path style="fill:#FFE000;" d="M305.785,101.5l-4.04-4.848c-3.777-4.532-9.371-7.152-15.27-7.152h-60.95
	c-5.899,0-11.494,2.62-15.27,7.152l-4.04,4.848H185V117h142v-15.5H305.785z"/>
<path style="fill:#FFC200;" d="M327,101.5h-21.215l-4.04-4.848c-3.777-4.532-9.371-7.152-15.27-7.152h-30.919V117H327V101.5z"/>
<g>
</g>
<g>
</g>
<g>
</g>
<g>
</g>
<g>
</g>
<g>
</g>
<g>
</g>
<g>
</g>
<g>
</g>
<g>
</g>
<g>
</g>
<g>
</g>
<g>
</g>
<g>
</g>
<g>
</g>
</svg>
