<?xml version="1.0" encoding="iso-8859-1"?>
<!-- Generator: Adobe Illustrator 19.0.0, SVG Export Plug-In . SVG Version: 6.00 Build 0)  -->
<svg version="1.1" id="Capa_1" xmlns="http://www.w3.org/2000/svg" xmlns:xlink="http://www.w3.org/1999/xlink" x="0px" y="0px"
	 viewBox="0 0 512 512" style="enable-background:new 0 0 512 512;" xml:space="preserve">
<circle style="fill:#FF432E;" cx="256" cy="256" r="256"/>
<path style="fill:#DB0404;" d="M512,256c0-21.893-2.754-43.141-7.924-63.424L428.5,117l-345,278l109.076,109.076
	C212.859,509.246,234.107,512,256,512C397.385,512,512,397.385,512,256z"/>
<rect x="83.5" y="117" style="fill:#FFFFFF;" width="345" height="278"/>
<rect x="255.56" y="117" style="fill:#F0F0F0;" width="172.94" height="278"/>
<rect x="83.5" y="117" style="fill:#00EDFF;" width="345" height="77"/>
<rect x="255.56" y="117" style="fill:#00C9FF;" width="172.94" height="77"/>
<rect x="119.67" y="217.67" style="fill:#00EDFF;" width="30.667" height="153.33"/>
<path style="fill:#7C00FF;" d="M113.661,274v-24c0-9.573,7.76-17.333,17.333-17.333h8.01c9.573,0,17.333,7.76,17.333,17.333v24
	c0,9.573-7.76,17.333-17.333,17.333h-8.01C121.422,291.333,113.661,283.573,113.661,274z"/>
<rect x="199.89" y="217.67" style="fill:#00EDFF;" width="30.667" height="153.33"/>
<g>
	<rect x="280.11" y="217.67" style="fill:#00C9FF;" width="30.667" height="153.33"/>
	<rect x="360.33" y="217.67" style="fill:#00C9FF;" width="30.667" height="153.33"/>
</g>
<path style="fill:#7C00FF;" d="M193.884,339.333v-24c0-9.573,7.76-17.333,17.333-17.333h8.01c9.573,0,17.333,7.76,17.333,17.333v24
	c0,9.573-7.76,17.333-17.333,17.333h-8.01C201.644,356.667,193.884,348.906,193.884,339.333z"/>
<g>
	<path style="fill:#5806C1;" d="M354.328,314v-24c0-9.573,7.76-17.333,17.333-17.333h8.01c9.573,0,17.333,7.76,17.333,17.333v24
		c0,9.573-7.76,17.333-17.333,17.333h-8.01C362.089,331.333,354.328,323.573,354.328,314z"/>
	<path style="fill:#5806C1;" d="M274.106,297.333v-24c0-9.573,7.76-17.333,17.333-17.333h8.01c9.573,0,17.333,7.76,17.333,17.333v24
		c0,9.573-7.76,17.333-17.333,17.333h-8.01C281.866,314.667,274.106,306.906,274.106,297.333z"/>
</g>
<g>
	<circle style="fill:#10B8E0;" cx="116.16" cy="155.5" r="18.336"/>
	<circle style="fill:#10B8E0;" cx="171.5" cy="155.5" r="18.336"/>
	<circle style="fill:#10B8E0;" cx="221.83" cy="155.5" r="18.336"/>
</g>
<rect x="284.33" y="137.16" style="fill:#0FA4BC;" width="119.33" height="33.17"/>
<g>
</g>
<g>
</g>
<g>
</g>
<g>
</g>
<g>
</g>
<g>
</g>
<g>
</g>
<g>
</g>
<g>
</g>
<g>
</g>
<g>
</g>
<g>
</g>
<g>
</g>
<g>
</g>
<g>
</g>
</svg>
