<?xml version="1.0" encoding="iso-8859-1"?>
<!-- Generator: Adobe Illustrator 19.0.0, SVG Export Plug-In . SVG Version: 6.00 Build 0)  -->
<svg version="1.1" id="Capa_1" xmlns="http://www.w3.org/2000/svg" xmlns:xlink="http://www.w3.org/1999/xlink" x="0px" y="0px"
	 viewBox="0 0 512 512" style="enable-background:new 0 0 512 512;" xml:space="preserve">
<circle style="fill:#FFE000;" cx="256" cy="256" r="256"/>
<path style="fill:#FFC200;" d="M512,256c0-9.447-0.528-18.769-1.525-27.95L342.426,60L98.395,295l174.999,175l4.095,41.095l0,0
	C408.816,500.177,512,390.146,512,256z"/>
<path style="fill:#FF432E;" d="M234.51,511.094C241.597,511.683,248.761,512,256,512c7.239,0,14.403-0.317,21.49-0.906V259h-42.98
	V511.094z"/>
<path style="fill:#DB0404;" d="M255.556,259v252.995c0.148,0,0.296,0.005,0.444,0.005c7.239,0,14.403-0.317,21.49-0.906V259H255.556
	z"/>
<path style="fill:#FF432E;" d="M395.322,283.682H116.678v-150.71c0-23.323,18.907-42.23,42.23-42.23h194.183
	c23.323,0,42.23,18.907,42.23,42.23L395.322,283.682L395.322,283.682z"/>
<path style="fill:#DB0404;" d="M395.322,132.972c0-23.323-18.907-42.23-42.23-42.23h-97.536v192.94h139.767L395.322,132.972
	L395.322,132.972z"/>
<rect x="169.57" y="60" style="fill:#FFFFFF;" width="172.85" height="202"/>
<rect x="255.56" y="60" style="fill:#F0F0F0;" width="86.87" height="202"/>
<rect x="98.39" y="250.96" style="fill:#DB0404;" width="315.21" height="44.04"/>
<rect x="255.56" y="250.96" style="fill:#C10000;" width="158.05" height="44.04"/>
<path style="fill:#7C00FF;" d="M227.115,115.596v53.608c-1.87-0.482-3.867-0.746-5.946-0.746c-10.403,0-18.836,6.532-18.836,14.589
	s8.433,14.589,18.836,14.589s18.836-6.532,18.836-14.589V124.92l40.77-11.815v41.109c-1.87-0.482-3.867-0.746-5.946-0.746
	c-10.403,0-18.836,6.532-18.836,14.589s8.433,14.589,18.836,14.589s18.836-6.532,18.836-14.589V96.31L227.115,115.596z"/>
<path style="fill:#4D20BC;" d="M255.5,107.371v13.06l25.276-7.325v41.109c-1.87-0.482-3.867-0.746-5.946-0.746
	c-10.403,0-18.836,6.532-18.836,14.589s8.433,14.589,18.836,14.589s18.836-6.532,18.836-14.589V96.31L255.5,107.371z"/>
<g>
</g>
<g>
</g>
<g>
</g>
<g>
</g>
<g>
</g>
<g>
</g>
<g>
</g>
<g>
</g>
<g>
</g>
<g>
</g>
<g>
</g>
<g>
</g>
<g>
</g>
<g>
</g>
<g>
</g>
</svg>
