<?xml version="1.0" encoding="iso-8859-1"?>
<!-- Generator: Adobe Illustrator 19.0.0, SVG Export Plug-In . SVG Version: 6.00 Build 0)  -->
<svg version="1.1" id="Capa_1" xmlns="http://www.w3.org/2000/svg" xmlns:xlink="http://www.w3.org/1999/xlink" x="0px" y="0px"
	 viewBox="0 0 512 512" style="enable-background:new 0 0 512 512;" xml:space="preserve">
<circle style="fill:#7C00FF;" cx="256" cy="256" r="256"/>
<path style="fill:#6633CC;" d="M512,256c0-8.904-0.457-17.701-1.344-26.371L401.311,120.284L118.782,400.141l110.471,110.471
	C238.045,511.526,246.967,512,256,512C397.385,512,512,397.385,512,256z"/>
<rect x="201.885" y="143.618" transform="matrix(-0.7071 -0.7071 0.7071 -0.7071 192.8339 644.4381)" style="fill:#FFE000;" width="55.999" height="277.327"/>
<rect x="224.873" y="153.154" transform="matrix(0.7071 0.7071 -0.7071 0.7071 276.4658 -83.8117)" style="fill:#FFC200;" width="29.06" height="277.327"/>
<polygon style="fill:#FFE85F;" points="395.536,146.565 411.564,130.537 381.629,100.603 365.601,116.631 344.742,109.913 
	285.345,169.31 342.856,226.822 402.253,167.425 "/>
<polygon style="fill:#FFE000;" points="411.563,130.537 395.846,114.82 313.351,197.316 342.856,226.822 402.253,167.425 
	395.536,146.565 "/>
<rect x="337.545" y="143.44" transform="matrix(-0.7071 -0.7071 0.7071 -0.7071 509.0912 513.419)" style="fill:#FFC200;" width="46.667" height="15.667"/>
<rect x="356.572" y="151.331" transform="matrix(0.7071 0.7071 -0.7071 0.7071 220.5564 -214.1411)" style="fill:#FF9D00;" width="24.394" height="15.667"/>
<path style="fill:#FFC200;" d="M282.517,229.65L282.517,229.65c-4.556-4.556-4.556-11.943,0-16.499l0,0
	c4.556-4.556,11.943-4.556,16.499,0l0,0c4.556,4.556,4.556,11.943,0,16.499l0,0C294.46,234.206,287.073,234.206,282.517,229.65z"/>
<path style="fill:#FF9D00;" d="M299.016,213.151c-0.253-0.253-0.518-0.487-0.788-0.712l-16.424,16.423
	c0.225,0.27,0.459,0.535,0.712,0.788c4.556,4.556,11.943,4.556,16.499,0l0,0C303.572,225.094,303.572,217.707,299.016,213.151
	L299.016,213.151z"/>
<path style="fill:#FFC200;" d="M247.947,264.22L247.947,264.22c-4.556-4.556-4.556-11.943,0-16.499l0,0
	c4.556-4.556,11.943-4.556,16.499,0l0,0c4.556,4.556,4.556,11.943,0,16.499l0,0C259.89,268.776,252.503,268.776,247.947,264.22z"/>
<path style="fill:#FF9D00;" d="M263.658,247.009l-16.424,16.423c0.225,0.27,0.459,0.535,0.712,0.788
	c4.556,4.556,11.943,4.556,16.499,0s4.556-11.943,0-16.499C264.193,247.468,263.928,247.233,263.658,247.009z"/>
<path style="fill:#FFC200;" d="M178.808,333.359L178.808,333.359c-4.556-4.556-4.556-11.943,0-16.499l0,0
	c4.556-4.556,11.943-4.556,16.499,0l0,0c4.556,4.556,4.556,11.943,0,16.499l0,0C190.751,337.915,183.364,337.915,178.808,333.359z"
	/>
<path style="fill:#FF9D00;" d="M194.519,316.148l-16.424,16.423c0.225,0.27,0.459,0.535,0.712,0.788
	c4.556,4.556,11.943,4.556,16.499,0s4.556-11.943,0-16.499C195.053,316.607,194.789,316.373,194.519,316.148z"/>
<path style="fill:#FFC200;" d="M213.377,298.789L213.377,298.789c-4.556-4.556-4.556-11.943,0-16.499l0,0
	c4.556-4.556,11.943-4.556,16.499,0l0,0c4.556,4.556,4.556,11.943,0,16.499l0,0C225.32,303.346,217.933,303.346,213.377,298.789z"/>
<path style="fill:#FF9D00;" d="M229.876,282.29c-0.253-0.253-0.518-0.487-0.788-0.712l-16.423,16.424
	c0.225,0.27,0.459,0.535,0.712,0.788l0,0c4.556,4.556,11.943,4.556,16.499,0l0,0C234.432,294.233,234.432,286.846,229.876,282.29
	L229.876,282.29z"/>
<rect x="92.215" y="364.894" transform="matrix(-0.7071 -0.7071 0.7071 -0.7071 -51.6758 745.7129)" style="fill:#FFC200;" width="72.779" height="37.33"/>
<rect x="122.367" y="377.396" transform="matrix(0.7071 0.7071 -0.7071 0.7071 321.3822 16.2365)" style="fill:#FF9D00;" width="37.451" height="37.33"/>
<g>
</g>
<g>
</g>
<g>
</g>
<g>
</g>
<g>
</g>
<g>
</g>
<g>
</g>
<g>
</g>
<g>
</g>
<g>
</g>
<g>
</g>
<g>
</g>
<g>
</g>
<g>
</g>
<g>
</g>
</svg>
