<?xml version="1.0" encoding="iso-8859-1"?>
<!-- Generator: Adobe Illustrator 19.0.0, SVG Export Plug-In . SVG Version: 6.00 Build 0)  -->
<svg version="1.1" id="Capa_1" xmlns="http://www.w3.org/2000/svg" xmlns:xlink="http://www.w3.org/1999/xlink" x="0px" y="0px"
	 viewBox="0 0 512 512" style="enable-background:new 0 0 512 512;" xml:space="preserve">
<circle style="fill:#00EDFF;" cx="256" cy="256" r="256"/>
<path style="fill:#00C9FF;" d="M512,256c0-12.234-0.878-24.261-2.537-36.037L380.5,91l-249,40l73.063,73.063L131.5,205
	l65.689,65.689l-26.591,6.862L272.83,379.784L170.598,438.5l73.204,73.204C247.845,511.894,251.91,512,256,512
	C397.385,512,512,397.385,512,256z"/>
<path style="fill:#4D20BC;" d="M256.001,246L256.001,246C291.347,246,320,278.996,320,319.698l10,118.063H182.001l10-118.062
	C192.001,278.996,220.655,246,256.001,246z"/>
<path style="fill:#4121A5;" d="M320,319.698C320,278.996,291.347,246,256.001,246l0,0c-0.336,0-0.666,0.023-1.001,0.029v191.732h75
	L320,319.698z"/>
<path style="fill:#7C00FF;" d="M256,315.667L256,315.667c-63.375,0-114.75-51.375-114.75-114.75v-96.419h229.5v96.419
	C370.75,264.291,319.375,315.667,256,315.667z"/>
<path style="fill:#6633CC;" d="M255,104.498v211.156c0.333,0.003,0.666,0.012,1,0.012l0,0c63.375,0,114.75-51.375,114.75-114.75
	v-96.419H255V104.498z"/>
<rect x="131.5" y="91" style="fill:#FFE000;" width="249" height="40"/>
<rect x="255" y="91" style="fill:#FFC200;" width="125.5" height="40"/>
<rect x="131.5" y="178" style="fill:#4D20BC;" width="249" height="27"/>
<rect x="255" y="178" style="fill:#4121A5;" width="125.5" height="27"/>
<rect x="170.6" y="411.5" style="fill:#7C00FF;" width="170.81" height="27"/>
<rect x="255" y="411.5" style="fill:#6633CC;" width="86.4" height="27"/>
<g>
</g>
<g>
</g>
<g>
</g>
<g>
</g>
<g>
</g>
<g>
</g>
<g>
</g>
<g>
</g>
<g>
</g>
<g>
</g>
<g>
</g>
<g>
</g>
<g>
</g>
<g>
</g>
<g>
</g>
</svg>
