<?xml version="1.0" encoding="iso-8859-1"?>
<!-- Generator: Adobe Illustrator 19.0.0, SVG Export Plug-In . SVG Version: 6.00 Build 0)  -->
<svg version="1.1" id="Capa_1" xmlns="http://www.w3.org/2000/svg" xmlns:xlink="http://www.w3.org/1999/xlink" x="0px" y="0px"
	 viewBox="0 0 512 512" style="enable-background:new 0 0 512 512;" xml:space="preserve">
<circle style="fill:#FFE000;" cx="256" cy="256" r="256"/>
<path style="fill:#FFC200;" d="M512,256c0-3.949-0.103-7.875-0.28-11.78L415,147.5l-29.548,76.271L241.227,79.546l-117.894,81.716
	L97,364.5l147.22,147.22c3.906,0.177,7.831,0.28,11.78,0.28C397.385,512,512,397.385,512,256z"/>
<path style="fill:#7C00FF;" d="M125.333,168.667l-22.161-18.681l122.333-71.777c4.994-2.93,11.294-2.394,15.721,1.338l0,0
	c7.21,6.078,6.241,17.46-1.892,22.232L125.333,168.667z"/>
<rect x="97" y="147.5" style="fill:#4D20BC;" width="318" height="217"/>
<rect x="255.56" y="147.5" style="fill:#3E1FA0;" width="159.44" height="217"/>
<rect x="123.33" y="179.67" style="fill:#00EDFF;" width="265.33" height="53.33"/>
<rect x="255.56" y="179.67" style="fill:#00C9FF;" width="133.11" height="53.33"/>
<rect x="298.27" y="179.67" style="fill:#069AC1;" width="20.729" height="53.33"/>
<circle style="fill:#6633CC;" cx="346.21" cy="293.55" r="40.12"/>
<rect x="123.33" y="251.17" style="fill:#7C00FF;" width="158.26" height="15.772"/>
<rect x="255.56" y="251.17" style="fill:#6633CC;" width="26.03" height="15.772"/>
<rect x="123.33" y="284.53" style="fill:#7C00FF;" width="158.26" height="15.772"/>
<rect x="255.56" y="284.53" style="fill:#6633CC;" width="26.03" height="15.772"/>
<rect x="123.33" y="317.89" style="fill:#7C00FF;" width="158.26" height="15.772"/>
<rect x="255.56" y="317.89" style="fill:#6633CC;" width="26.03" height="15.772"/>
<g>
</g>
<g>
</g>
<g>
</g>
<g>
</g>
<g>
</g>
<g>
</g>
<g>
</g>
<g>
</g>
<g>
</g>
<g>
</g>
<g>
</g>
<g>
</g>
<g>
</g>
<g>
</g>
<g>
</g>
</svg>
