<?xml version="1.0" encoding="iso-8859-1"?>
<!-- Generator: Adobe Illustrator 19.0.0, SVG Export Plug-In . SVG Version: 6.00 Build 0)  -->
<svg version="1.1" id="Capa_1" xmlns="http://www.w3.org/2000/svg" xmlns:xlink="http://www.w3.org/1999/xlink" x="0px" y="0px"
	 viewBox="0 0 512 512" style="enable-background:new 0 0 512 512;" xml:space="preserve">
<circle style="fill:#FF432E;" cx="256" cy="256" r="256"/>
<path style="fill:#DB0404;" d="M512,256c0-15.761-1.433-31.186-4.16-46.16l-79.173-79.173L83.333,381.333L209.84,507.84
	c14.974,2.727,30.399,4.16,46.16,4.16C397.385,512,512,397.385,512,256z"/>
<rect x="83.33" y="130.67" style="fill:#FFFFFF;" width="345.33" height="250.67"/>
<rect x="255" y="130.67" style="fill:#F0F0F0;" width="173.67" height="250.67"/>
<path style="fill:#7C00FF;" d="M213.607,148.454c-59.396,0-107.546,48.15-107.546,107.546s48.15,107.546,107.546,107.546
	S321.153,315.396,321.153,256S273.003,148.454,213.607,148.454z M213.607,270.815c-8.182,0-14.815-6.633-14.815-14.815
	s6.633-14.815,14.815-14.815s14.815,6.633,14.815,14.815S221.789,270.815,213.607,270.815z"/>
<path style="fill:#6633CC;" d="M213.607,148.454c-0.277,0-0.552,0.008-0.829,0.01v92.762c0.276-0.015,0.549-0.042,0.829-0.042
	c8.182,0,14.815,6.633,14.815,14.815c0,8.182-6.633,14.815-14.815,14.815c-0.28,0-0.553-0.026-0.829-0.042v92.762
	c0.277,0.002,0.552,0.01,0.829,0.01c59.396,0,107.546-48.15,107.546-107.546S273.003,148.454,213.607,148.454z"/>
<path style="fill:#3C1CA0;" d="M213.608,344.247C213.606,344.247,213.609,344.247,213.608,344.247v-13.169
	c20.054,0,38.908-7.809,53.088-21.99c14.181-14.18,21.99-33.034,21.99-53.088h13.169c0,23.572-9.179,45.732-25.847,62.4
	C259.341,335.066,237.177,344.247,213.608,344.247z"/>
<g>
	<path style="fill:#4D20BC;" d="M138.529,256H125.36c0-23.572,9.179-45.732,25.847-62.4c16.667-16.667,38.83-25.847,62.4-25.847
		c0.002,0-0.001,0,0,0v13.169c-20.054,0-38.908,7.809-53.088,21.99C146.339,217.092,138.529,235.946,138.529,256z"/>
	<path style="fill:#4D20BC;" d="M213.607,211.551c-24.549,0-44.449,19.901-44.449,44.449c0,24.549,19.9,44.449,44.449,44.449
		s44.449-19.901,44.449-44.449C258.057,231.451,238.156,211.551,213.607,211.551z M213.607,270.815
		c-8.182,0-14.815-6.633-14.815-14.815s6.633-14.815,14.815-14.815s14.815,6.633,14.815,14.815S221.79,270.815,213.607,270.815z"/>
</g>
<path style="fill:#3C1CA0;" d="M213.607,211.551c-0.278,0-0.552,0.016-0.829,0.021v29.655c0.276-0.015,0.549-0.042,0.83-0.042
	c8.182,0,14.815,6.633,14.815,14.815c0,8.182-6.633,14.815-14.815,14.815c-0.28,0-0.553-0.026-0.83-0.042v29.655
	c0.277,0.005,0.551,0.021,0.829,0.021c24.549,0,44.449-19.901,44.449-44.449C258.057,231.451,238.156,211.551,213.607,211.551z"/>
<rect x="362.33" y="243" style="fill:#FFE000;" width="43.33" height="116.67"/>
<g>
	<circle style="fill:#FF9700;" cx="384" cy="266.33" r="13.333"/>
	<circle style="fill:#FF9700;" cx="384" cy="301.33" r="13.333"/>
	<circle style="fill:#FF9700;" cx="384" cy="336.33" r="13.333"/>
</g>
<circle style="fill:#7C00FF;" cx="381.33" cy="168.67" r="24.333"/>
<g>
	<circle style="fill:#4D20BC;" cx="381.33" cy="168.67" r="12"/>
	<circle style="fill:#4D20BC;" cx="112.42" cy="157.91" r="10.243"/>
	<polygon style="fill:#4D20BC;" points="267.685,252.794 263.648,233.206 346.241,216.183 372.4,164.173 390.267,173.16 
		359.759,233.817 	"/>
</g>
<g>
</g>
<g>
</g>
<g>
</g>
<g>
</g>
<g>
</g>
<g>
</g>
<g>
</g>
<g>
</g>
<g>
</g>
<g>
</g>
<g>
</g>
<g>
</g>
<g>
</g>
<g>
</g>
<g>
</g>
</svg>
