<?xml version="1.0" encoding="iso-8859-1"?>
<!-- Generator: Adobe Illustrator 19.0.0, SVG Export Plug-In . SVG Version: 6.00 Build 0)  -->
<svg version="1.1" id="Capa_1" xmlns="http://www.w3.org/2000/svg" xmlns:xlink="http://www.w3.org/1999/xlink" x="0px" y="0px"
	 viewBox="0 0 512 512" style="enable-background:new 0 0 512 512;" xml:space="preserve">
<circle style="fill:#FFE000;" cx="256" cy="256" r="256"/>
<path style="fill:#FFC200;" d="M512,256c0-9.305-0.51-18.491-1.478-27.539L431.89,149.83L79.896,361.926l148.6,148.6
	C237.533,511.492,246.707,512,256,512C397.385,512,512,397.385,512,256z"/>
<path style="fill:#7C00FF;" d="M416.44,369H95.56c-11.539,0-20.893-9.354-20.893-20.893V163.893
	c0-11.539,9.354-20.893,20.893-20.893h320.88c11.539,0,20.893,9.354,20.893,20.893v184.214C437.333,359.646,427.979,369,416.44,369z
	"/>
<path style="fill:#6633CC;" d="M416.44,143H255v226h161.44c11.539,0,20.893-9.354,20.893-20.893V163.893
	C437.333,152.354,427.979,143,416.44,143z"/>
<polygon style="fill:#B180FF;" points="397.333,383 114.667,383 124.667,317.667 387.333,317.667 "/>
<g>
	<polygon style="fill:#9A4DFF;" points="387.333,317.667 255,317.667 255,383 397.333,383 	"/>
	<path style="fill:#9A4DFF;" d="M379.243,342.307H132.757c-16.434,0-29.757-13.322-29.757-29.757V199.449
		c0-16.434,13.322-29.757,29.757-29.757h246.487c16.434,0,29.757,13.322,29.757,29.757v113.102
		C409,328.985,395.678,342.307,379.243,342.307z"/>
</g>
<path style="fill:#8639FF;" d="M379.244,169.693H255v172.615h124.244c16.434,0,29.757-13.322,29.757-29.756V199.449
	C409,183.015,395.678,169.693,379.244,169.693z"/>
<path style="fill:#530AC6;" d="M327.698,288.999H184.302c-21.824,0-39.516-17.692-39.516-39.516l0,0
	c0-21.824,17.692-39.516,39.516-39.516h143.397c21.824,0,39.516,17.692,39.516,39.516l0,0
	C367.215,271.307,349.523,288.999,327.698,288.999z"/>
<path style="fill:#420CAA;" d="M327.698,209.966H255v79.032h72.698c21.824,0,39.516-17.692,39.516-39.516l0,0
	C367.215,227.658,349.523,209.966,327.698,209.966z"/>
<circle style="fill:#FFFFFF;" cx="184.71" cy="249.15" r="34.816"/>
<circle style="fill:#F0F0F0;" cx="327.29" cy="249.15" r="34.816"/>
<g>
</g>
<g>
</g>
<g>
</g>
<g>
</g>
<g>
</g>
<g>
</g>
<g>
</g>
<g>
</g>
<g>
</g>
<g>
</g>
<g>
</g>
<g>
</g>
<g>
</g>
<g>
</g>
<g>
</g>
</svg>
