<?xml version="1.0" encoding="iso-8859-1"?>
<!-- Generator: Adobe Illustrator 19.0.0, SVG Export Plug-In . SVG Version: 6.00 Build 0)  -->
<svg version="1.1" id="Capa_1" xmlns="http://www.w3.org/2000/svg" xmlns:xlink="http://www.w3.org/1999/xlink" x="0px" y="0px"
	 viewBox="0 0 512 512" style="enable-background:new 0 0 512 512;" xml:space="preserve">
<circle style="fill:#FF432E;" cx="256" cy="256" r="256"/>
<path style="fill:#DB0404;" d="M512,256c0-5.846-0.215-11.642-0.6-17.39L437.79,165L74.21,347l164.4,164.4
	c5.749,0.386,11.544,0.6,17.39,0.6C397.385,512,512,397.385,512,256z"/>
<rect x="82.991" y="165" style="fill:#FFFFFF;" width="354.8" height="182"/>
<rect x="252.98" y="165" style="fill:#F0F0F0;" width="184.81" height="182"/>
<rect x="190.81" y="165" style="fill:#D6D6D6;" width="62.17" height="182"/>
<rect x="307.4" y="165" style="fill:#BFC0C1;" width="62.17" height="182"/>
<rect x="74.21" y="165" style="fill:#D6D6D6;" width="62.17" height="182"/>
<g>
	<rect x="112.61" y="165" style="fill:#7C00FF;" width="47.546" height="115.22"/>
	<rect x="229.21" y="165" style="fill:#7C00FF;" width="47.546" height="115.22"/>
</g>
<g>
	<rect x="252.98" y="165" style="fill:#5908C1;" width="23.773" height="115.22"/>
	<rect x="345.8" y="165" style="fill:#5908C1;" width="47.546" height="115.22"/>
</g>
<g>
</g>
<g>
</g>
<g>
</g>
<g>
</g>
<g>
</g>
<g>
</g>
<g>
</g>
<g>
</g>
<g>
</g>
<g>
</g>
<g>
</g>
<g>
</g>
<g>
</g>
<g>
</g>
<g>
</g>
</svg>
