<?xml version="1.0" encoding="iso-8859-1"?>
<!-- Generator: Adobe Illustrator 19.0.0, SVG Export Plug-In . SVG Version: 6.00 Build 0)  -->
<svg version="1.1" id="Capa_1" xmlns="http://www.w3.org/2000/svg" xmlns:xlink="http://www.w3.org/1999/xlink" x="0px" y="0px"
	 viewBox="0 0 512 512" style="enable-background:new 0 0 512 512;" xml:space="preserve">
<circle style="fill:#7C00FF;" cx="256" cy="256" r="256"/>
<path style="fill:#6205DB;" d="M511.942,260.608L380.759,129.426l-11.929,14.521l-69.681-69.681l-95.633,11.995L130.5,408.685
	l102.253,102.253C240.412,511.628,248.162,512,256,512C395.844,512,509.481,399.865,511.942,260.608z"/>
<polygon style="fill:#FFE000;" points="381.5,408.685 130.5,408.685 131.241,129.426 380.759,129.426 "/>
<polygon style="fill:#FFC200;" points="380.759,129.426 255.556,129.426 255.556,408.685 381.5,408.685 "/>
<path style="fill:#7C00FF;" d="M212.315,241.2v3.971v13.923v55.556c-2.562-0.66-5.299-1.022-8.146-1.022
	c-14.254,0-25.808,8.95-25.808,19.99c0,11.04,11.555,19.99,25.808,19.99c14.254,0,25.808-8.95,25.808-19.99v-79.642l55.861-16.188
	v56.325c-2.562-0.66-5.299-1.022-8.146-1.022c-14.254,0-25.808,8.95-25.808,19.99s11.555,19.99,25.808,19.99
	c14.254,0,25.808-8.95,25.808-19.99V232.67v-8.036v-9.858L212.315,241.2z"/>
<path style="fill:#5806C1;" d="M255.556,228.669v17.894l30.283-8.776v56.325c-2.562-0.66-5.299-1.022-8.146-1.022
	c-9.4,0-17.624,3.893-22.136,9.711v20.558c4.512,5.817,12.736,9.711,22.136,9.711c14.254,0,25.808-8.95,25.808-19.99v-80.411v-8.036
	v-9.858L255.556,228.669z"/>
<path style="fill:#FF4545;" d="M319.519,175.074h-25v-54.241c0-21.239-17.279-38.518-38.519-38.518s-38.519,17.279-38.519,38.518
	v54.241h-25v-54.241c0-35.024,28.494-63.518,63.519-63.518s63.519,28.494,63.519,63.518V175.074z"/>
<path style="fill:#FC0023;" d="M256,57.315c-0.149,0-0.296,0.01-0.444,0.011v25c0.149-0.002,0.295-0.011,0.444-0.011
	c21.239,0,38.519,17.279,38.519,38.518v54.241h25v-54.241C319.519,85.809,291.024,57.315,256,57.315z"/>
<g>
</g>
<g>
</g>
<g>
</g>
<g>
</g>
<g>
</g>
<g>
</g>
<g>
</g>
<g>
</g>
<g>
</g>
<g>
</g>
<g>
</g>
<g>
</g>
<g>
</g>
<g>
</g>
<g>
</g>
</svg>
