<?xml version="1.0" encoding="iso-8859-1"?>
<!-- Generator: Adobe Illustrator 19.0.0, SVG Export Plug-In . SVG Version: 6.00 Build 0)  -->
<svg version="1.1" id="Capa_1" xmlns="http://www.w3.org/2000/svg" xmlns:xlink="http://www.w3.org/1999/xlink" x="0px" y="0px"
	 viewBox="0 0 512 512" style="enable-background:new 0 0 512 512;" xml:space="preserve">
<circle style="fill:#FFE000;" cx="256" cy="256" r="256"/>
<path style="fill:#FFC200;" d="M512,256c0-12.048-0.852-23.895-2.462-35.5L291.5,2.462L138.31,230.31L119,338.183l171.496,171.496
	C415.565,492.83,512,385.685,512,256z"/>
<path style="fill:#5B02CE;" d="M291.5,2.462C279.895,0.852,268.048,0,256,0s-23.895,0.852-35.5,2.462v123.725h71V2.462z"/>
<path style="fill:#530AC6;" d="M291.5,2.462C279.895,0.852,268.048,0,256,0c-0.148,0-0.296,0.004-0.444,0.004v126.183H291.5V2.462z"
	/>
<path style="fill:#7C00FF;" d="M256,435L256,435c-46.208,0-83.667-37.459-83.667-83.667v-110c0-46.208,37.459-83.667,83.667-83.667
	l0,0c46.208,0,83.667,37.459,83.667,83.667v110C339.667,397.541,302.208,435,256,435z"/>
<path style="fill:#6305DD;" d="M256,157.667L256,157.667c-0.149,0-0.296,0.01-0.444,0.011v277.311
	C255.704,434.99,255.851,435,256,435l0,0c46.208,0,83.667-37.459,83.667-83.667v-110C339.667,195.125,302.208,157.667,256,157.667z"
	/>
<path style="fill:#7C00FF;" d="M393,338.183h-37v-98.532c0-55.14-44.859-100-100-100s-100,44.86-100,100v98.532h-37v-98.532
	c0-75.542,61.458-137,137-137s137,61.458,137,137V338.183z"/>
<path style="fill:#6305DD;" d="M256,102.651c-0.149,0-0.296,0.005-0.444,0.006v37c0.148-0.001,0.296-0.006,0.444-0.006
	c55.141,0,100,44.86,100,100v98.532h37v-98.532C393,164.109,331.542,102.651,256,102.651z"/>
<g>
	<rect x="172.33" y="237.67" style="fill:#994AFF;" width="60" height="24.333"/>
	<rect x="172.33" y="284.17" style="fill:#994AFF;" width="60" height="24.333"/>
	<rect x="172.33" y="330.67" style="fill:#994AFF;" width="60" height="24.333"/>
</g>
<g>
	<rect x="279.67" y="237.67" style="fill:#9645FF;" width="60" height="24.333"/>
	<rect x="279.67" y="284.17" style="fill:#9645FF;" width="60" height="24.333"/>
	<rect x="279.67" y="330.67" style="fill:#9645FF;" width="60" height="24.333"/>
</g>
<g>
</g>
<g>
</g>
<g>
</g>
<g>
</g>
<g>
</g>
<g>
</g>
<g>
</g>
<g>
</g>
<g>
</g>
<g>
</g>
<g>
</g>
<g>
</g>
<g>
</g>
<g>
</g>
<g>
</g>
</svg>
