<?xml version="1.0" encoding="iso-8859-1"?>
<!-- Generator: Adobe Illustrator 19.0.0, SVG Export Plug-In . SVG Version: 6.00 Build 0)  -->
<svg version="1.1" id="Capa_1" xmlns="http://www.w3.org/2000/svg" xmlns:xlink="http://www.w3.org/1999/xlink" x="0px" y="0px"
	 viewBox="0 0 512 512" style="enable-background:new 0 0 512 512;" xml:space="preserve">
<circle style="fill:#FF432E;" cx="256" cy="256" r="256"/>
<path style="fill:#DB0404;" d="M512,256c0-8.642-0.435-17.181-1.271-25.603L449,168.668L63,331.332l180.355,180.355
	C247.545,511.891,251.76,512,256,512C397.385,512,512,397.385,512,256z"/>
<rect x="63" y="217.31" style="fill:#7C00FF;" width="386" height="114.02"/>
<rect x="255.56" y="217.31" style="fill:#6633CC;" width="193.44" height="114.02"/>
<rect x="63" y="168.67" style="fill:#00EDFF;" width="386" height="114.02"/>
<rect x="255.56" y="168.67" style="fill:#00C9FF;" width="193.44" height="114.02"/>
<path style="fill:#FFFFFF;" d="M393.558,205.28v-7.846H118.442v7.872c-10.733,0.28-19.352,9.048-19.352,19.849
	s8.62,19.569,19.352,19.849v7.872h275.117v-7.846c10.977,0,19.875-8.898,19.875-19.875
	C413.434,214.179,404.535,205.28,393.558,205.28z"/>
<path style="fill:#F0F0F0;" d="M393.558,205.281v-7.845H255.556v55.442h138.003v-7.845c10.977,0,19.875-8.899,19.875-19.875
	S404.535,205.281,393.558,205.281z"/>
<g>
	<rect x="84.44" y="293.67" style="fill:#5600C6;" width="22.19" height="25.629"/>
	<rect x="130.29" y="293.67" style="fill:#5600C6;" width="22.19" height="25.629"/>
	<rect x="176.13" y="293.67" style="fill:#5600C6;" width="22.19" height="25.629"/>
	<rect x="221.98" y="293.67" style="fill:#5600C6;" width="22.19" height="25.629"/>
</g>
<g>
	<rect x="267.83" y="293.67" style="fill:#4908AF;" width="22.19" height="25.629"/>
	<rect x="313.67" y="293.67" style="fill:#4908AF;" width="22.19" height="25.629"/>
	<rect x="359.52" y="293.67" style="fill:#4908AF;" width="22.19" height="25.629"/>
	<rect x="405.36" y="293.67" style="fill:#4908AF;" width="22.19" height="25.629"/>
</g>
<g>
</g>
<g>
</g>
<g>
</g>
<g>
</g>
<g>
</g>
<g>
</g>
<g>
</g>
<g>
</g>
<g>
</g>
<g>
</g>
<g>
</g>
<g>
</g>
<g>
</g>
<g>
</g>
<g>
</g>
</svg>
