<?xml version="1.0" encoding="iso-8859-1"?>
<!-- Generator: Adobe Illustrator 19.0.0, SVG Export Plug-In . SVG Version: 6.00 Build 0)  -->
<svg version="1.1" id="Capa_1" xmlns="http://www.w3.org/2000/svg" xmlns:xlink="http://www.w3.org/1999/xlink" x="0px" y="0px"
	 viewBox="0 0 512 512" style="enable-background:new 0 0 512 512;" xml:space="preserve">
<circle style="fill:#00EDFF;" cx="256" cy="256" r="256"/>
<path style="fill:#00C9FF;" d="M512,256c0-13.618-1.074-26.985-3.122-40.028L404.053,111.147l-17.626,17.034L319.245,61l-196.49,358
	l89.214,89.215C226.276,510.695,240.985,512,256,512C397.385,512,512,397.385,512,256z"/>
<rect x="143.67" y="407" style="fill:#5E00D8;" width="29.333" height="34"/>
<rect x="339" y="407" style="fill:#5600C6;" width="29.333" height="34"/>
<g>
	<polygon style="fill:#7C00FF;" points="389.245,419 122.755,419 192.755,61 319.245,61 	"/>
	<polygon style="fill:#7C00FF;" points="389.245,419 122.755,419 192.755,61 319.245,61 	"/>
</g>
<polygon style="fill:#4D20BC;" points="319.245,61 255.556,61 255.556,419 389.245,419 "/>
<polygon style="fill:#FFFFFF;" points="145.672,301.796 366.328,301.796 328.495,108.306 183.505,108.306 "/>
<polygon style="fill:#F0F0F0;" points="328.495,108.306 255.556,108.306 255.556,301.796 366.328,301.796 "/>
<rect x="242.33" y="122.33" style="fill:#9543FF;" width="27.333" height="179.46"/>
<rect x="255.56" y="122.33" style="fill:#8144E2;" width="14.11" height="179.46"/>
<rect x="229.33" y="157.67" style="fill:#7C00FF;" width="53.33" height="38"/>
<rect x="255.56" y="157.67" style="fill:#4D20BC;" width="27.11" height="38"/>
<polygon style="fill:#7C00FF;" points="384.614,98.853 256.189,301.796 283.402,301.796 404.053,111.147 "/>
<polygon style="fill:#4D20BC;" points="393.525,104.488 270.762,301.796 283.402,301.796 404.053,111.147 "/>
<g>
</g>
<g>
</g>
<g>
</g>
<g>
</g>
<g>
</g>
<g>
</g>
<g>
</g>
<g>
</g>
<g>
</g>
<g>
</g>
<g>
</g>
<g>
</g>
<g>
</g>
<g>
</g>
<g>
</g>
</svg>
