<?xml version="1.0" encoding="iso-8859-1"?>
<!-- Generator: Adobe Illustrator 19.0.0, SVG Export Plug-In . SVG Version: 6.00 Build 0)  -->
<svg version="1.1" id="Capa_1" xmlns="http://www.w3.org/2000/svg" xmlns:xlink="http://www.w3.org/1999/xlink" x="0px" y="0px"
	 viewBox="0 0 512 512" style="enable-background:new 0 0 512 512;" xml:space="preserve">
<circle style="fill:#7C00FF;" cx="256" cy="256" r="256"/>
<path style="fill:#5E00D8;" d="M304.689,507.355C422.785,484.613,512,380.734,512,256c0-0.326-0.011-0.65-0.012-0.976
	l-74.521-74.521l-2.099,6.864L417,169l-20.901,49.766L346.333,169l-26.517,49.483L270.333,169l-20.56,47.44L202.333,169
	l-12.568,53.432L136.333,169L74.534,271.497l25.984,25.984l-4.851,0.852L304.689,507.355z"/>
<polygon style="fill:#FFFFFF;" points="437.466,331.497 74.534,271.497 74.534,180.503 437.466,180.503 "/>
<polygon style="fill:#F0F0F0;" points="74.534,255.111 74.534,271.497 437.466,331.497 437.466,255.111 "/>
<rect x="95.67" y="169" style="fill:#FF432E;" width="40.667" height="129.33"/>
<rect x="95.67" y="255.11" style="fill:#DB0404;" width="40.667" height="43.22"/>
<rect x="161.67" y="169" style="fill:#00EDFF;" width="40.667" height="139.53"/>
<rect x="161.67" y="255.11" style="fill:#00C9FF;" width="40.667" height="53.42"/>
<rect x="229.67" y="169" style="fill:#FFE000;" width="40.667" height="151.5"/>
<rect x="229.67" y="255.11" style="fill:#FFC200;" width="40.667" height="65.39"/>
<rect x="305.67" y="169" style="fill:#FF432E;" width="40.667" height="165.5"/>
<rect x="305.67" y="255.11" style="fill:#DB0404;" width="40.667" height="79.39"/>
<rect x="376.33" y="169" style="fill:#00EDFF;" width="40.667" height="182.5"/>
<rect x="376.33" y="255.11" style="fill:#00C9FF;" width="40.667" height="96.39"/>
<circle style="fill:#5806C1;" cx="182.17" cy="193.5" r="12.167"/>
<circle style="fill:#430CAD;" cx="182.17" cy="270.82" r="12.167"/>
<g>
	<circle style="fill:#5806C1;" cx="116" cy="193.5" r="12.167"/>
	<circle style="fill:#5806C1;" cx="116" cy="265.33" r="12.167"/>
</g>
<path style="fill:#430CAD;" d="M123.367,255.667h-14.734c-2.912,2.223-4.8,5.72-4.8,9.667c0,6.719,5.447,12.167,12.167,12.167
	s12.167-5.447,12.167-12.167C128.167,261.387,126.279,257.89,123.367,255.667z"/>
<circle style="fill:#5806C1;" cx="250" cy="193.5" r="12.167"/>
<circle style="fill:#430CAD;" cx="250" cy="282.98" r="12.167"/>
<circle style="fill:#5806C1;" cx="326" cy="193.5" r="12.167"/>
<circle style="fill:#430CAD;" cx="326" cy="294.15" r="12.167"/>
<circle style="fill:#5806C1;" cx="396.67" cy="193.5" r="12.167"/>
<circle style="fill:#430CAD;" cx="396.67" cy="306.32" r="12.167"/>
<g>
</g>
<g>
</g>
<g>
</g>
<g>
</g>
<g>
</g>
<g>
</g>
<g>
</g>
<g>
</g>
<g>
</g>
<g>
</g>
<g>
</g>
<g>
</g>
<g>
</g>
<g>
</g>
<g>
</g>
</svg>
