<?xml version="1.0" encoding="iso-8859-1"?>
<!-- Generator: Adobe Illustrator 19.0.0, SVG Export Plug-In . SVG Version: 6.00 Build 0)  -->
<svg version="1.1" id="Capa_1" xmlns="http://www.w3.org/2000/svg" xmlns:xlink="http://www.w3.org/1999/xlink" x="0px" y="0px"
	 viewBox="0 0 512 512" style="enable-background:new 0 0 512 512;" xml:space="preserve">
<circle style="fill:#FF432E;" cx="256" cy="256" r="256"/>
<path style="fill:#DB0404;" d="M509.799,289.639L284.5,64.34L158,262l-98,0.331l91.355,91.355l-40.778,19.792L249,511.901
	c2.326,0.062,4.659,0.099,7,0.099C385.981,512,493.326,415.125,509.799,289.639z"/>
<path style="fill:#FFFFFF;" d="M329.587,393.487H155.945c-22.252,0-42.813-12.071-53.66-31.501
	c-10.846-19.43-10.328-43.267,1.353-62.208l100.055-162.253c11.274-18.282,30.828-29.197,52.307-29.197s41.033,10.915,52.308,29.197
	l78.084,126.624l-48.518,29.918L259.79,167.444c-0.865-1.404-2.141-2.116-3.79-2.116s-2.925,0.712-3.791,2.116L152.154,329.697
	c-0.339,0.55-1.372,2.225-0.098,4.508c1.274,2.283,3.242,2.283,3.888,2.283h173.642v56.999H329.587z"/>
<g>
	<rect x="255" y="336.49" style="fill:#F0F0F0;" width="74.59" height="57"/>
	<path style="fill:#F0F0F0;" d="M256,165.328c1.649,0,2.925,0.712,3.79,2.116l78.084,126.624l48.518-29.918l-78.084-126.624
		c-11.274-18.282-30.828-29.197-52.308-29.197c-0.334,0-0.667,0.011-1,0.016v57.088C255.317,165.368,255.648,165.328,256,165.328z"
		/>
</g>
<rect x="60" y="220.33" style="fill:#FFE000;" width="196" height="42"/>
<rect x="156.11" y="220.33" style="fill:#FFC200;" width="99.89" height="42"/>
<rect x="227.5" y="64.34" style="fill:#FFFFFF;" width="57" height="72.49"/>
<rect x="255" y="64.34" style="fill:#F0F0F0;" width="29.5" height="72.49"/>
<g>
</g>
<g>
</g>
<g>
</g>
<g>
</g>
<g>
</g>
<g>
</g>
<g>
</g>
<g>
</g>
<g>
</g>
<g>
</g>
<g>
</g>
<g>
</g>
<g>
</g>
<g>
</g>
<g>
</g>
</svg>
