<?xml version="1.0" encoding="iso-8859-1"?>
<!-- Generator: Adobe Illustrator 19.0.0, SVG Export Plug-In . SVG Version: 6.00 Build 0)  -->
<svg version="1.1" id="Capa_1" xmlns="http://www.w3.org/2000/svg" xmlns:xlink="http://www.w3.org/1999/xlink" x="0px" y="0px"
	 viewBox="0 0 512 512" style="enable-background:new 0 0 512 512;" xml:space="preserve">
<circle style="fill:#7C00FF;" cx="256" cy="256" r="256"/>
<path style="fill:#5806C1;" d="M274.754,511.313C407.382,501.709,512,391.077,512,256c0-9.787-0.569-19.44-1.638-28.942
	L355.873,72.569L330.69,195.386L207.873,72.569l-26.454,233.162l90.4,90.4l-46.946,65.301L274.754,511.313z"/>
<path style="fill:#FFFFFF;" d="M298.873,72.569v154.562c0,29.487-20.411,53.476-45.5,53.476s-45.5-23.989-45.5-53.476V72.569h-57
	v154.562c0,50.261,31.304,92.786,74,106.127v128.174h57V333.257c42.696-13.341,74-55.865,74-106.127V72.569H298.873z"/>
<path style="fill:#F0F0F0;" d="M298.873,72.569v154.562c0,28.627-19.238,52.067-43.317,53.411v180.89h26.317V333.257
	c42.696-13.341,74-55.865,74-106.127V72.569H298.873z"/>
<g>
</g>
<g>
</g>
<g>
</g>
<g>
</g>
<g>
</g>
<g>
</g>
<g>
</g>
<g>
</g>
<g>
</g>
<g>
</g>
<g>
</g>
<g>
</g>
<g>
</g>
<g>
</g>
<g>
</g>
</svg>
