<?xml version="1.0" encoding="iso-8859-1"?>
<!-- Generator: Adobe Illustrator 19.0.0, SVG Export Plug-In . SVG Version: 6.00 Build 0)  -->
<svg version="1.1" id="Capa_1" xmlns="http://www.w3.org/2000/svg" xmlns:xlink="http://www.w3.org/1999/xlink" x="0px" y="0px"
	 viewBox="0 0 512 512" style="enable-background:new 0 0 512 512;" xml:space="preserve">
<circle style="fill:#7C00FF;" cx="256" cy="256" r="256"/>
<path style="fill:#5806C1;" d="M512,256c0-6.128-0.229-12.201-0.653-18.221L399.945,126.377L116.496,391.409l119.848,119.848
	C242.831,511.749,249.386,512,256,512C397.385,512,512,397.385,512,256z"/>
<path style="fill:#FFE000;" d="M259.291,353.53c1.142-12.621,8.059-23.945,18.432-31.226c3.112-2.184,6.079-4.667,8.86-7.449
	c0.116-0.116,0.232-0.233,0.347-0.349c16.57-16.812,16.228-43.943-0.463-60.634l-32.928-32.928
	c-16.691-16.691-43.822-17.033-60.634-0.463c-0.117,0.115-0.233,0.231-0.349,0.347c-2.781,2.781-5.264,5.748-7.449,8.86
	c-7.281,10.373-18.605,17.29-31.226,18.432c-21.819,1.974-43.096,11.309-59.798,28.012c-0.179,0.179-0.357,0.359-0.535,0.539
	c-25.242,25.632-24.88,66.91,0.558,92.348l44.286,44.286c25.438,25.438,66.716,25.8,92.348,0.558c0.18-0.177,0.36-0.356,0.539-0.535
	C247.982,396.626,257.318,375.348,259.291,353.53z"/>
<path style="fill:#FFC200;" d="M271.353,238.758L117.599,392.512l20.793,20.793c25.438,25.438,66.716,25.8,92.348,0.558
	c0.18-0.177,0.36-0.356,0.539-0.535c16.703-16.702,26.038-37.98,28.012-59.798c1.142-12.621,8.059-23.945,18.432-31.226
	c3.112-2.185,6.079-4.667,8.86-7.449c0.116-0.116,0.232-0.233,0.347-0.349c16.569-16.812,16.228-43.943-0.463-60.634
	L271.353,238.758z"/>
<rect x="271.326" y="90.065" transform="matrix(-0.7071 -0.7071 0.7071 -0.7071 351.5724 575.4241)" style="fill:#FFFFFF;" width="47.27" height="249.668"/>
<rect x="291.647" y="98.49" transform="matrix(-0.7071 -0.7071 0.7071 -0.7071 359.9842 595.7579)" style="fill:#F0F0F0;" width="23.462" height="249.668"/>
<circle style="fill:#DEBB0D;" cx="206.69" cy="303.18" r="38.543"/>
<path style="fill:#CC9D02;" d="M179.563,330.549c15.062,14.929,39.371,14.891,54.382-0.119
	c15.011-15.011,15.048-39.321,0.119-54.382L179.563,330.549z"/>
<polygon style="fill:#FFE000;" points="357.778,190.14 319.726,152.088 364.978,91.41 418.457,144.889 "/>
<polygon style="fill:#FFC200;" points="418.457,144.889 391.84,118.272 338.875,171.237 357.778,190.14 "/>
<g>
</g>
<g>
</g>
<g>
</g>
<g>
</g>
<g>
</g>
<g>
</g>
<g>
</g>
<g>
</g>
<g>
</g>
<g>
</g>
<g>
</g>
<g>
</g>
<g>
</g>
<g>
</g>
<g>
</g>
</svg>
